<svg width="363" height="394" viewBox="0 0 363 394" fill="none" xmlns="http://www.w3.org/2000/svg">
<path d="M357 0C360.314 0 363 2.68629 363 6V256.749C363 258.989 362.061 261.126 360.412 262.641L339.945 281.441C337.757 283.451 337.794 286.915 340.024 288.878L360.285 306.706C362.011 308.224 363 310.412 363 312.711V388C363 391.314 360.314 394 357 394H219.131C216.101 394 213.331 392.289 211.976 389.579L203.384 372.404C198.301 362.244 187.914 355.827 176.554 355.827H8C3.58172 355.827 0 352.245 0 347.827V6C5.23106e-06 2.6863 2.68629 0 6 0H357Z" fill="white"/>
</svg>
