<svg width="722" height="289" viewBox="0 0 722 289" fill="none" xmlns="http://www.w3.org/2000/svg">
<path d="M716 0C719.314 0 722 2.68629 722 6V185.168C722 188.597 719.815 191.645 716.567 192.745L682.28 204.36C677.722 205.905 677.764 212.366 682.342 213.852L716.469 224.926C719.767 225.996 722 229.068 722 232.535V283C722 286.314 719.314 289 716 289H428.647C426.938 289 425.275 288.453 423.9 287.439L395.971 266.852C390.814 263.051 384.576 261 378.17 261H8C3.58173 261 0 257.418 0 253V6C9.80906e-07 2.68629 2.68629 1.64801e-08 6 0H716Z" fill="white"/>
</svg>
