<svg width="220" height="181" viewBox="0 0 220 181" fill="none" xmlns="http://www.w3.org/2000/svg">
<path d="M208 6C211.314 6 214 8.68629 214 12V141.356L195.475 152.384C194.816 152.776 194.826 153.733 195.491 154.112L214 164.666V175C214 178.314 211.314 181 208 181H126.3L116.786 168.622C116.597 168.376 116.304 168.231 115.993 168.231H0V12C8.55784e-07 8.68629 2.68629 6 6 6H208Z" fill="white"/>
<path d="M215 1H167C164.791 1 163 2.79086 163 5V11.9674C163 13.0283 163.421 14.0457 164.172 14.7958L205.204 55.8284C205.954 56.5786 206.972 57 208.033 57H215C217.209 57 219 55.2091 219 53V5C219 2.79086 217.209 1 215 1Z" fill="black" fill-opacity="0.6" stroke="white"/>
</svg>
