<svg width="28" height="23" viewBox="0 0 28 23" fill="none" xmlns="http://www.w3.org/2000/svg">
<path fill-rule="evenodd" clip-rule="evenodd" d="M0.773438 3.44009C0.773438 1.95628 1.9763 0.753418 3.4601 0.753418H24.5401C26.0239 0.753418 27.2268 1.95628 27.2268 3.44008V19.9734C27.2268 21.4572 26.0239 22.6601 24.5401 22.6601H3.4601C1.9763 22.6601 0.773438 21.4572 0.773438 19.9734V3.44009ZM3.4601 1.99342C2.66113 1.99342 2.01344 2.64111 2.01344 3.44009V19.9734C2.01344 20.7724 2.66113 21.4201 3.4601 21.4201H24.5401C25.3391 21.4201 25.9868 20.7724 25.9868 19.9734V3.44008C25.9868 2.64111 25.3391 1.99342 24.5401 1.99342H3.4601Z" fill="#FF41DF"/>
<ellipse cx="6.97378" cy="6.54018" rx="2.68667" ry="2.68667" fill="#FF41DF"/>
<path d="M4.28711 17.2735V16.9438C4.28711 16.5018 4.4627 16.0779 4.77527 15.7653L7.53322 13.0074C8.1456 12.395 9.13098 12.3716 9.77179 12.9541C10.4061 13.5307 11.3795 13.5144 11.9941 12.9169L17.1622 7.89238C17.8156 7.25711 18.8581 7.26445 19.5025 7.90886L23.639 12.0453C23.9515 12.3579 24.1271 12.7818 24.1271 13.2238V17.2735C24.1271 18.194 23.3809 18.9402 22.4604 18.9402H5.95378C5.0333 18.9402 4.28711 18.194 4.28711 17.2735Z" fill="#FF41DF"/>
</svg>
