<svg width="62" height="62" viewBox="0 0 62 62" fill="none" xmlns="http://www.w3.org/2000/svg">
<g id="Component Placeholder Image">
<rect id="Rectangle 3" x="0.5" y="0.5" width="61" height="61" rx="4.5" stroke="#FF41DF"/>
<g id="Group 1">
<path id="Rectangle 4 (Stroke)" fill-rule="evenodd" clip-rule="evenodd" d="M17.7734 22.94C17.7734 21.4562 18.9763 20.2534 20.4601 20.2534H41.5401C43.0239 20.2534 44.2268 21.4562 44.2268 22.94V39.4734C44.2268 40.9572 43.0239 42.16 41.5401 42.16H20.4601C18.9763 42.16 17.7734 40.9572 17.7734 39.4734V22.94ZM20.4601 21.4934C19.6611 21.4934 19.0134 22.1411 19.0134 22.94V39.4734C19.0134 40.2723 19.6611 40.92 20.4601 40.92H41.5401C42.3391 40.92 42.9868 40.2723 42.9868 39.4734V22.94C42.9868 22.1411 42.3391 21.4934 41.5401 21.4934H20.4601Z" fill="#FF41DF"/>
<ellipse id="Ellipse 1" cx="23.9738" cy="26.04" rx="2.68667" ry="2.68667" fill="#FF41DF"/>
<path id="Vector 2" d="M21.2871 36.7734V36.4437C21.2871 36.0017 21.4627 35.5778 21.7753 35.2652L24.5332 32.5073C25.1456 31.8949 26.131 31.8714 26.7718 32.454C27.4061 33.0306 28.3795 33.0143 28.9941 32.4168L34.1622 27.3923C34.8156 26.757 35.8581 26.7643 36.5025 27.4087L40.639 31.5452C40.9515 31.8578 41.1271 32.2817 41.1271 32.7237V36.7734C41.1271 37.6938 40.3809 38.44 39.4604 38.44H22.9538C22.0333 38.44 21.2871 37.6938 21.2871 36.7734Z" fill="#FF41DF"/>
</g>
</g>
</svg>
