<svg width="227" height="48" viewBox="0 0 227 48" fill="none" xmlns="http://www.w3.org/2000/svg">
<g id="&#208;&#187;&#208;&#190;&#208;&#179;&#208;&#190;" clip-path="url(#clip0_355_3301)">
<path id="Vector" d="M109.684 9.03084C109.862 9.0641 109.926 8.96431 110.039 8.86451C110.475 8.44871 110.878 7.76678 111.298 7.31771C114.428 3.97461 117.672 3.30932 122.126 3.59207C123.53 3.67523 125.773 4.07441 126.467 5.50479C127.16 6.93516 126.709 6.61915 126.935 6.65241C127.209 6.51936 127.435 6.45283 127.741 6.4362C130.13 6.28651 134.713 6.17008 137.02 6.4362C139.328 6.70231 138.779 7.16802 139.441 8.06616C140.344 7.30107 140.942 6.58589 142.184 6.4362C145.202 6.65242 148.703 6.10355 151.673 6.4362C152.625 6.55262 153.787 7.13475 154.174 8.11606C154.561 9.09737 154.497 9.26369 154.497 9.31358V15.268C154.9 15.1682 155.094 14.7524 155.497 14.6027C155.901 14.453 156.514 14.3532 156.837 14.3199C158.983 14.137 163.42 14.1037 165.551 14.3199C165.922 14.3532 166.842 14.7524 167.035 14.7524C167.326 14.7524 168.116 14.3698 168.52 14.3199C170.537 14.1203 172.861 14.4696 174.91 14.3199C175.233 13.8708 175.168 13.2721 175.394 12.7897C175.701 12.1411 179.364 7.73351 179.961 7.23454C180.558 6.73558 181.155 6.50272 181.801 6.41956C184.657 6.07028 188.126 6.63578 191.047 6.4362C192.08 6.65242 192.967 7.10149 193.387 8.14932C193.468 8.33228 193.758 9.39675 193.758 9.52981V14.0704C198.26 12.8396 202.763 15.6006 204.925 19.609C207.087 23.6174 206.055 22.3699 206.345 23.9334C206.635 25.4968 206.813 27.842 206.587 28.8566C206.361 29.8711 206.264 30.1871 206.103 30.8524C205.587 33.0146 204.683 34.4783 203.376 36.1914C199.487 41.3308 196.033 45.4722 189.014 43.5595C188.74 43.493 187.997 43.1104 187.868 43.0938C187.626 43.0938 186.545 43.5262 186.045 43.5595C184.092 43.7258 180.542 43.7258 178.589 43.5595C175.539 43.2934 174.926 41.7133 175.039 38.8359C175.039 38.7361 175.088 38.47 174.926 38.4867C174.765 38.5033 173.474 40.1499 173.151 40.4326C168.972 44.2747 162.597 44.8735 157.401 43.0938C155.416 42.4119 153.69 41.0813 152.254 39.5511C150.624 41.2975 149.833 43.3267 147.219 43.5595C145.153 43.7425 140.78 43.7757 138.747 43.5429C137.504 43.4098 136.568 42.8111 135.858 41.7965C135.197 42.0792 134.874 42.8111 134.196 43.1271C133.518 43.4431 133.002 43.493 132.647 43.5429C130.646 43.7591 126.208 43.7591 124.191 43.5429C122.174 43.3267 121.787 42.8942 121.287 41.8131C121.125 41.4805 121.141 41.1977 121.045 40.8817C120.948 40.5657 121.125 40.6655 120.867 40.7154C120.609 40.7653 119.302 42.5616 118.85 42.8942C118.398 43.2269 117.704 43.4597 117.172 43.5263C115.219 43.7757 110.733 43.7425 108.732 43.5595C107.554 43.4597 106.118 42.8776 105.65 41.6634C105.182 40.4493 105.359 40.6156 105.359 40.5491V38.8359L104.617 39.5345C103.181 41.2809 102.229 43.2601 99.792 43.5429C97.3554 43.8256 93.2888 43.7591 91.3362 43.5429C89.3836 43.3267 89.1739 42.8942 88.5768 41.7799C87.544 42.678 87.0438 43.3766 85.5914 43.5429C84.1391 43.7092 79.4594 43.7258 77.4745 43.5595C76.9258 43.5096 76.2481 43.1936 75.764 43.1936C75.2799 43.1936 73.65 43.9254 72.8916 44.0086C70.5033 44.308 67.4695 43.3932 65.5653 41.8963C63.6612 40.3994 62.6284 38.5366 61.7893 36.5906C61.5634 37.0895 61.3697 37.4721 61.047 37.9045C60.7242 38.337 60.7888 38.0709 60.7081 38.1706C59.2719 40.0168 57.3839 43.2102 55.0117 43.5096C53.1075 43.7591 48.7505 43.7092 46.7979 43.5429C43.9578 43.2934 43.2962 41.6468 43.2478 38.9357C42.7798 38.9357 40.4561 42.6447 39.2135 43.1603C37.971 43.6759 37.9387 43.5096 37.5353 43.5429C35.3729 43.7258 31.5646 43.7092 29.4022 43.5429C27.5787 43.4098 26.1102 42.5449 25.9166 40.5324V25.7962C25.9005 25.7962 25.8036 25.6465 25.8036 25.6465C24.0931 25.6798 21.8823 25.8794 21.0109 23.9833C20.1395 22.0872 20.5752 22.7691 20.5429 22.4697C20.3332 20.9229 20.3493 15.7836 20.5429 14.2201C20.7366 12.6567 20.8011 13.1224 20.8818 12.9228C21.2207 12.0579 23.851 8.98094 24.6095 8.14932C25.3679 7.31771 26.0295 6.51935 27.3528 6.3863H47.3789C48.3794 6.58588 49.3637 7.01833 49.7994 8.0329C50.2351 9.04747 50.2029 9.39675 50.2029 9.51317V14.2866C53.0753 14.4197 56.109 14.1037 58.9653 14.2866C59.3526 14.3199 59.8044 14.5361 60.111 14.5361C60.5629 14.5361 62.1766 13.8542 62.8866 13.7378C65.7106 13.2721 68.0182 13.7378 68.228 17.1308C68.6798 16.8979 68.938 16.4488 69.3253 16.1328C71.4554 14.453 74.473 13.4218 77.1518 13.8376C79.8305 14.2534 79.1689 14.5029 79.7982 14.5361C80.4276 14.5694 80.5244 14.3199 80.944 14.2866C83.5098 14.0704 86.3499 14.4696 88.9479 14.2866C89.5289 13.1889 90.2228 12.1577 90.9651 11.1764C95.193 5.57132 97.6781 3.02657 105.101 3.5588C106.521 3.6586 108.78 4.09104 109.41 5.60458C110.039 7.11812 109.732 6.75221 109.732 6.81874V8.99757L109.684 9.03084ZM106.715 14.1037V7.08486C106.328 6.81874 105.634 6.71894 105.166 6.66905C100.938 6.31977 96.613 6.9518 95.3221 11.7419C95.2737 11.8916 95.0316 13.0226 95.0316 13.1058V17.4634C94.9509 17.5798 94.9186 17.6131 94.7734 17.6131C94.1441 17.6131 93.1597 17.164 92.6272 17.5798V24.2993C93.2081 24.7983 94.1602 24.2494 94.7734 24.266C95.3866 24.2827 94.9509 24.3159 95.0316 24.4157V35.7423L95.2091 35.9253H103.681L103.859 35.7423V24.4157C104.246 24.133 105.037 24.449 105.521 24.4656C106.005 24.4823 106.247 24.4656 106.602 24.4656V17.3803L103.746 17.6131V15.4343C103.746 13.9374 105.666 13.4717 106.731 14.0704L106.715 14.1037ZM120.915 17.6464V15.3511C120.915 14.3199 122.174 13.8043 123.029 13.8708C123.885 13.9374 123.788 14.2201 123.869 13.9041L123.836 7.01833C121.884 6.55262 118.979 6.40293 117.043 7.00169C114.444 7.80004 112.201 10.4778 112.201 13.3386V17.4634C112.121 17.5798 112.088 17.6131 111.943 17.6131C111.314 17.6131 110.33 17.164 109.797 17.5798V24.4823C110.12 24.4823 110.443 24.4989 110.765 24.4823C111.088 24.4656 111.879 24.133 112.201 24.4324V35.759L112.379 35.9419H120.851L121.028 35.759V24.4324C121.416 24.1496 122.206 24.4656 122.691 24.4823C123.175 24.4989 123.417 24.4823 123.772 24.4823V17.3969L120.915 17.6297V17.6464ZM41.8923 17.8792L46.8625 18.0788C46.9432 18.0788 47.1691 17.846 47.1691 17.8127V9.6795L46.9916 9.49654H27.3528V17.9957C28.9342 18.2119 30.7577 17.6796 32.3391 17.8792C33.9206 18.0788 32.6296 17.8792 32.7264 18.0622V35.759L32.9039 35.9419H41.6018C41.6179 35.9419 41.8923 35.6758 41.8923 35.6425V17.8792ZM136.714 9.49654H127.838L127.661 9.6795V35.6425C127.661 35.6592 127.919 35.9419 127.951 35.9419H136.536L136.714 35.759V26.7276H142.442V35.759L142.62 35.9419H151.205C151.221 35.9419 151.495 35.6758 151.495 35.6425V9.6795L151.318 9.49654H142.442V18.3449H136.714V9.49654ZM190.757 17.8127C190.95 15.1848 190.611 12.324 190.757 9.6795L190.579 9.49654H181.93V35.7423L182.107 35.9253H190.127C190.66 35.5926 189.982 33.1976 190.063 33.0978C190.628 33.2142 190.821 33.9793 191.16 34.3785C193.258 36.7902 197.034 36.9399 199.648 35.3598C204.344 32.499 204.618 23.9999 201.456 19.8917C198.744 16.3823 194.145 15.6006 191.112 19.11C190.87 19.3928 190.773 19.9583 190.305 19.8751C190.628 19.2431 190.579 18.794 190.644 18.162C190.708 17.5299 190.757 17.8626 190.757 17.8127ZM65.1458 16.6983C62.8059 16.5653 60.1272 17.3137 59.0782 19.6423L58.8523 19.5757L59.0621 17.5965L58.9007 17.3969H50.1383V35.7423L50.3158 35.9253H58.6748C59.1105 35.9253 58.8523 35.0105 58.8362 34.8109C58.8039 32.9814 58.7232 30.8192 58.8362 29.0229C58.9492 27.2266 60.1433 24.8149 62.7898 25.0644C63.6773 25.1475 64.3712 25.6465 65.1458 26.0124V16.6983ZM81.1215 35.9253H89.3675L89.545 35.7423V17.5798L89.3675 17.3969H81.0085C80.6212 17.8959 80.9762 18.6609 81.0892 19.2098C81.2022 19.7587 81.2506 19.5258 81.0085 19.5092C80.7665 19.4926 80.008 18.4447 79.8144 18.2784C77.652 16.4488 74.6505 16.4488 72.2461 17.8127C66.7272 20.9396 66.3399 30.6861 71.0519 34.7444C75.764 38.8027 77.1679 37.0064 79.6369 34.9772C82.1058 32.9481 81.0408 33.3972 81.186 33.5635L80.9762 35.7257L81.1376 35.9253H81.1215ZM165.454 17.3969H156.756V29.3722C156.756 29.6882 157.305 31.235 157.482 31.5842C160.177 36.8567 168.6 37.5885 173.216 34.8774C175.313 33.6467 177.266 31.1352 177.266 28.5405V17.5632L177.089 17.3803H168.552V27.7089C168.552 27.9418 168.116 28.79 167.923 28.9563C167.568 29.2391 166.696 29.2724 166.293 29.106C165.889 28.9397 165.47 28.2079 165.47 27.7256V17.3969H165.454Z" fill="black"/>
<path id="Vector_2" d="M136.713 9.49658V18.345H142.442V9.49658H151.317L151.495 9.67954V35.6426C151.495 35.6592 151.236 35.942 151.204 35.942H142.619L142.442 35.759V26.7277H136.713V35.759L136.536 35.942H127.951C127.934 35.942 127.66 35.6758 127.66 35.6426V9.67954L127.838 9.49658H136.713Z" fill="white"/>
<path id="Vector_3" d="M190.757 17.8127C190.757 17.8626 190.66 18.0123 190.644 18.162C190.579 18.794 190.644 19.2597 190.305 19.8751C190.773 19.9583 190.853 19.3928 191.112 19.1101C194.162 15.6006 198.761 16.3824 201.456 19.8918C204.618 24 204.36 32.4991 199.648 35.3598C197.05 36.9399 193.258 36.7902 191.16 34.3785C189.062 31.9668 190.628 33.1976 190.063 33.0978C189.966 33.1976 190.644 35.5927 190.127 35.9253H182.107L181.93 35.7424V9.49658H190.579L190.757 9.67954C190.611 12.3407 190.95 15.1848 190.757 17.8127ZM191.999 23.8004C189.514 24.2328 189.675 29.8379 193 29.3057C196.324 28.7734 194.888 27.9252 195.001 26.8773C195.194 24.9314 193.952 23.4511 191.999 23.7837V23.8004Z" fill="white"/>
<path id="Vector_4" d="M81.1206 35.9254L80.9592 35.7259L81.169 33.5637C81.0237 33.3973 79.7973 34.8277 79.6198 34.9774C77.1508 37.0065 73.4232 36.7903 71.0349 34.7446C66.3229 30.6863 66.7102 20.9397 72.229 17.8129C74.6335 16.449 77.635 16.449 79.7973 18.2786C80.0071 18.4449 80.9108 19.5094 80.9915 19.5094C81.2335 19.5094 81.0883 19.2765 81.0721 19.21C80.9592 18.6611 80.6042 17.896 80.9915 17.3971H89.3505L89.528 17.58V35.7425L89.3505 35.9254H81.1044H81.1206ZM78.3934 24.0333C76.1826 24.4325 75.9244 28.1582 77.9738 29.0064C79.3939 29.5885 80.9108 28.4575 81.1367 26.9773C81.3626 25.497 80.1362 23.7173 78.3934 24.0333Z" fill="white"/>
<path id="Vector_5" d="M41.892 17.8793V35.6426C41.892 35.6592 41.6338 35.942 41.6016 35.942H32.9037L32.7262 35.759V18.0622C32.6294 17.8959 32.5003 17.8959 32.3389 17.8793C30.7575 17.6963 28.934 18.2119 27.3525 17.9957V9.49658H46.9913L47.1688 9.67954V17.8127C47.1688 17.846 46.9429 18.0622 46.8622 18.0789L41.892 17.8793Z" fill="white"/>
<path id="Vector_6" d="M165.453 17.397V27.7257C165.453 28.208 165.824 28.9232 166.276 29.1062C166.728 29.2891 167.551 29.2558 167.906 28.9565C168.261 28.6571 168.535 27.9419 168.535 27.709V17.3804H177.072L177.249 17.5633V28.5407C177.249 31.1353 175.297 33.6468 173.199 34.8776C168.6 37.572 160.16 36.8568 157.465 31.5844C157.288 31.2351 156.739 29.6883 156.739 29.3723V17.397H165.437H165.453Z" fill="white"/>
<path id="Vector_7" d="M106.714 14.1039C105.649 13.5051 103.729 13.9708 103.729 15.4677V17.6466L106.585 17.4137V24.4991C106.23 24.4991 105.859 24.5157 105.504 24.4991C105.149 24.4825 104.229 24.1498 103.842 24.4492V35.7758L103.664 35.9588H95.1923L95.0148 35.7758V24.4492C94.9341 24.3328 94.9018 24.2995 94.7566 24.2995C94.1434 24.2829 93.1913 24.8317 92.6104 24.3328V17.6133C93.1429 17.1975 94.1272 17.6632 94.7566 17.6466C95.3859 17.63 94.9341 17.5967 95.0148 17.4969V13.1392C95.0148 13.0727 95.2568 11.9251 95.3052 11.7754C96.6123 7.0019 100.937 6.35324 105.149 6.70252C105.617 6.73579 106.311 6.85221 106.698 7.11833V14.1372L106.714 14.1039Z" fill="white"/>
<path id="Vector_8" d="M120.915 17.6463L123.772 17.4135V24.4988C123.417 24.4988 123.045 24.5155 122.69 24.4988C122.335 24.4822 121.416 24.1495 121.028 24.4489V35.7755L120.851 35.9585H112.379L112.201 35.7755V24.4489C111.879 24.1495 111.201 24.4656 110.765 24.4988C110.329 24.5321 110.12 24.4988 109.797 24.4988V17.5964C110.329 17.1806 111.314 17.6463 111.943 17.6297C112.572 17.6131 112.121 17.5798 112.201 17.48V13.3552C112.201 10.4944 114.444 7.79999 117.042 7.01827C118.979 6.41951 121.884 6.5692 123.836 7.0349L123.868 13.9207C123.788 14.2367 123.32 13.9207 123.029 13.8874C122.174 13.8043 120.915 14.3365 120.915 15.3677V17.663V17.6463Z" fill="white"/>
<path id="Vector_9" d="M65.1452 16.6984V26.0125C64.3706 25.6466 63.6767 25.1642 62.7891 25.0644C60.1588 24.7983 59.0131 26.5447 58.8356 29.0229C58.6581 31.5011 58.8033 32.9814 58.8356 34.811C58.8678 36.6405 59.1099 35.9253 58.6742 35.9253H50.3152L50.1377 35.7424V17.3969H58.9001L59.0615 17.5965L58.8517 19.5758L59.0776 19.6423C60.1427 17.3138 62.8214 16.5653 65.1452 16.6984Z" fill="white"/>
<path id="Vector_10" d="M191.998 23.8003C193.951 23.451 195.194 24.948 195 26.8939C194.903 27.9418 194.048 29.1559 192.999 29.3223C189.691 29.8379 189.513 24.2494 191.998 23.817V23.8003Z" fill="black"/>
<path id="Vector_11" d="M78.3936 24.0331C80.1525 23.7171 81.4112 25.214 81.1369 26.977C80.8626 28.7401 79.378 29.5883 77.974 29.0062C75.9246 28.1579 76.1828 24.4323 78.3936 24.0331Z" fill="black"/>
</g>
<defs>
<clipPath id="clip0_355_3301">
<rect width="227" height="48" fill="white"/>
</clipPath>
</defs>
</svg>
