<svg width="185" height="39" viewBox="0 0 185 39" fill="none" xmlns="http://www.w3.org/2000/svg">
<path d="M88.4595 5.32594C88.6353 5.35792 88.6993 5.262 88.8112 5.16608C89.2428 4.76642 89.6425 4.11097 90.0581 3.67933C93.1595 0.46604 96.3728 -0.17342 100.785 0.0983509C102.176 0.178283 104.398 0.56196 105.085 1.9368C105.773 3.31164 105.325 3.0079 105.549 3.03987C105.821 2.91198 106.045 2.84803 106.348 2.83205C108.714 2.68817 113.255 2.57626 115.541 2.83205C117.827 3.08783 117.283 3.53545 117.939 4.39872C118.834 3.66334 119.425 2.97592 120.656 2.83205C123.646 3.03987 127.115 2.51232 130.056 2.83205C131 2.94395 132.151 3.50348 132.534 4.44669C132.918 5.38989 132.854 5.54975 132.854 5.59771V11.3209C133.254 11.225 133.446 10.8253 133.845 10.6814C134.245 10.5375 134.852 10.4416 135.172 10.4097C137.298 10.2338 141.695 10.2018 143.805 10.4097C144.172 10.4416 145.084 10.8253 145.276 10.8253C145.563 10.8253 146.347 10.4576 146.746 10.4097C148.745 10.2178 151.047 10.5535 153.077 10.4097C153.397 9.97802 153.333 9.4025 153.557 8.93889C153.86 8.31542 157.489 4.07899 158.081 3.5994C158.672 3.1198 159.264 2.89599 159.903 2.81606C162.733 2.48034 166.17 3.02388 169.063 2.83205C170.087 3.03987 170.966 3.4715 171.382 4.47866C171.461 4.65451 171.749 5.67765 171.749 5.80554V10.1699C176.209 8.98685 180.67 11.6406 182.812 15.4934C184.954 19.3461 183.931 18.1471 184.219 19.6499C184.506 21.1526 184.682 23.4067 184.458 24.3819C184.235 25.357 184.139 25.6608 183.979 26.3003C183.467 28.3785 182.572 29.7853 181.277 31.4319C177.424 36.3718 174.003 40.3524 167.049 38.514C166.777 38.45 166.042 38.0823 165.914 38.0663C165.674 38.0663 164.603 38.482 164.108 38.514C162.173 38.6738 158.656 38.6738 156.722 38.514C153.7 38.2582 153.093 36.7394 153.205 33.9738C153.205 33.8779 153.253 33.6221 153.093 33.6381C152.933 33.654 151.654 35.2367 151.334 35.5085C147.194 39.2014 140.879 39.7769 135.732 38.0663C133.765 37.4109 132.055 36.132 130.632 34.6612C129.017 36.3398 128.234 38.2901 125.644 38.514C123.598 38.6898 119.265 38.7218 117.251 38.498C116.02 38.3701 115.093 37.7946 114.39 36.8194C113.734 37.0912 113.414 37.7946 112.743 38.0983C112.072 38.4021 111.56 38.45 111.208 38.498C109.226 38.7058 104.83 38.7058 102.831 38.498C100.833 38.2901 100.449 37.8745 99.9538 36.8354C99.7939 36.5156 99.8099 36.2439 99.714 35.9401C99.618 35.6364 99.7939 35.7323 99.5381 35.7803C99.2823 35.8282 97.9874 37.5548 97.5398 37.8745C97.0922 38.1942 96.4047 38.418 95.8772 38.482C93.9428 38.7218 89.4986 38.6898 87.5163 38.514C86.3492 38.418 84.9264 37.8585 84.4628 36.6915C83.9992 35.5245 84.1751 35.6843 84.1751 35.6204V33.9738L83.4397 34.6452C82.0169 36.3238 81.0737 38.2262 78.6597 38.498C76.2458 38.7697 72.2172 38.7058 70.2828 38.498C68.3484 38.2901 68.1406 37.8745 67.5491 36.8034C66.526 37.6667 66.0304 38.3381 64.5916 38.498C63.1528 38.6578 58.5167 38.6738 56.5504 38.514C56.0068 38.466 55.3354 38.1623 54.8558 38.1623C54.3762 38.1623 52.7616 38.8657 52.0102 38.9456C49.6442 39.2333 46.6387 38.3541 44.7523 36.9153C42.8659 35.4765 41.8428 33.686 41.0115 31.8156C40.7877 32.2952 40.5958 32.6629 40.2761 33.0785C39.9564 33.4942 40.0203 33.2384 39.9404 33.3343C38.5176 35.1088 36.6472 38.1782 34.2971 38.466C32.4107 38.7058 28.0944 38.6578 26.16 38.498C23.3464 38.2582 22.6909 36.6755 22.643 34.0697C22.1794 34.0697 19.8773 37.6347 18.6463 38.1303C17.4154 38.6259 17.3834 38.466 16.9837 38.498C14.8415 38.6738 11.0687 38.6578 8.92653 38.498C7.12005 38.3701 5.66528 37.5388 5.47344 35.6044V21.4404C5.45746 21.4404 5.36154 21.2965 5.36154 21.2965C3.66697 21.3284 1.47681 21.5203 0.613542 19.6978C-0.24973 17.8754 0.181907 18.5308 0.149934 18.243C-0.0578912 16.7563 -0.0419047 11.8165 0.149934 10.3137C0.341772 8.811 0.405716 9.25863 0.485649 9.06679C0.821366 8.23549 3.42717 5.27798 4.17853 4.47866C4.9299 3.67933 5.58535 2.91198 6.89624 2.78408H26.7355C27.7267 2.97592 28.7019 3.39158 29.1335 4.36675C29.5651 5.34193 29.5332 5.67765 29.5332 5.78955V10.3777C32.3788 10.5056 35.3842 10.2018 38.2138 10.3777C38.5975 10.4097 39.0451 10.6175 39.3489 10.6175C39.7965 10.6175 41.3951 9.96203 42.0986 9.85013C44.8962 9.4025 47.1823 9.85013 47.3901 13.1114C47.8377 12.8876 48.0935 12.4559 48.4772 12.1522C50.5874 10.5375 53.5769 9.54638 56.2306 9.94605C58.8844 10.3457 58.229 10.5855 58.8524 10.6175C59.4759 10.6495 59.5718 10.4097 59.9875 10.3777C62.5293 10.1699 65.3429 10.5535 67.9168 10.3777C68.4923 9.32257 69.1797 8.33141 69.9151 7.3882C74.1036 2.00075 76.5655 -0.445193 83.9193 0.0663759C85.3261 0.162295 87.5642 0.577947 88.1877 2.03272C88.8112 3.48749 88.5074 3.13579 88.5074 3.19973V5.29397L88.4595 5.32594ZM85.5179 10.2018V3.45552C85.1343 3.19974 84.4468 3.10382 83.9832 3.05586C79.7948 2.72014 75.5104 3.32763 74.2315 7.93174C74.1835 8.07562 73.9437 9.16271 73.9437 9.24264V13.4311C73.8638 13.543 73.8318 13.575 73.6879 13.575C73.0644 13.575 72.0893 13.1433 71.5617 13.543V20.0016C72.1372 20.4812 73.0804 19.9536 73.6879 19.9696C74.2954 19.9856 73.8638 20.0176 73.9437 20.1135V31.0003L74.1195 31.1761H82.5125L82.6883 31.0003V20.1135C83.072 19.8417 83.8553 20.1454 84.3349 20.1614C84.8145 20.1774 85.0543 20.1614 85.406 20.1614V13.3512L82.5764 13.575V11.4808C82.5764 10.042 84.4788 9.59434 85.5339 10.1699V10.2018H85.5179ZM99.5861 13.607V11.4008C99.5861 10.4097 100.833 9.91407 101.68 9.97802C102.528 10.042 102.432 10.3137 102.512 10.01L102.48 3.39157C100.545 2.94395 97.6677 2.80007 95.7493 3.37559C93.1755 4.14294 90.9533 6.71677 90.9533 9.46645V13.4311C90.8734 13.543 90.8414 13.575 90.6976 13.575C90.0741 13.575 89.0989 13.1433 88.5714 13.543V20.1774C88.8911 20.1774 89.2108 20.1934 89.5306 20.1774C89.8503 20.1614 90.6336 19.8417 90.9533 20.1295V31.0163L91.1292 31.1921H99.5221L99.698 31.0163V20.1295C100.082 19.8577 100.865 20.1614 101.345 20.1774C101.824 20.1934 102.064 20.1774 102.416 20.1774V13.3672L99.5861 13.591V13.607ZM21.3001 13.8308L26.2239 14.0226C26.3039 14.0226 26.5277 13.7988 26.5277 13.7668V5.94942L26.3518 5.77356H6.89624V13.9427C8.46292 14.1505 10.2694 13.6389 11.8361 13.8308C13.4028 14.0226 12.1238 13.8308 12.2198 14.0066V31.0163L12.3956 31.1921H21.0123C21.0283 31.1921 21.3001 30.9363 21.3001 30.9044V13.8308ZM115.237 5.77356H106.444L106.268 5.94942V30.9044C106.268 30.9204 106.524 31.1921 106.556 31.1921H115.061L115.237 31.0163V22.3356H120.912V31.0163L121.088 31.1921H129.593C129.593 31.1921 129.881 30.9363 129.881 30.9044V5.94942L129.705 5.77356H120.912V14.2784H115.237V5.77356ZM168.776 13.7668C168.968 11.241 168.632 8.49127 168.776 5.94942L168.6 5.77356H160.031V31.0003L160.207 31.1761H168.152C168.68 30.8564 168.008 28.5544 168.088 28.4584C168.648 28.5703 168.84 29.3057 169.175 29.6894C171.254 32.0074 174.994 32.1513 177.584 30.6326C182.236 27.8829 182.508 19.7138 179.375 15.7651C176.689 12.392 172.133 11.6406 169.127 15.0138C168.888 15.2855 168.792 15.8291 168.328 15.7492C168.648 15.1417 168.6 14.71 168.664 14.1025C168.728 13.4951 168.776 13.8148 168.776 13.7668ZM44.3367 12.6957C42.0186 12.5678 39.3649 13.2872 38.3257 15.5253L38.1019 15.4614L38.3097 13.559L38.1499 13.3672H29.4692V31.0003L29.6451 31.1761H37.9261C38.3577 31.1761 38.1019 30.2969 38.0859 30.105C38.054 28.3465 37.974 26.2683 38.0859 24.5417C38.1978 22.8152 39.3808 20.4971 42.0026 20.7369C42.8819 20.8169 43.5693 21.2965 44.3367 21.6482V12.6957ZM60.1633 31.1761H68.3324L68.5083 31.0003V13.543L68.3324 13.3672H60.0514C59.6677 13.8468 60.0194 14.5821 60.1313 15.1097C60.2433 15.6372 60.2912 15.4134 60.0514 15.3974C59.8116 15.3815 59.0602 14.3743 58.8684 14.2144C56.7262 12.4559 53.7527 12.4559 51.3707 13.7668C45.9033 16.7723 45.5197 26.1404 50.1877 30.0411C54.8558 33.9418 56.2466 32.2153 58.6926 30.2649C61.1385 28.3146 60.0834 28.7462 60.2273 28.9061L60.0194 30.9843L60.1793 31.1761H60.1633ZM143.709 13.3672H135.092V24.8775C135.092 25.1812 135.636 26.6679 135.812 27.0037C138.481 32.0714 146.826 32.7748 151.398 30.169C153.477 28.986 155.411 26.572 155.411 24.0781V13.527L155.235 13.3512H146.778V23.2788C146.778 23.5026 146.347 24.3179 146.155 24.4778C145.803 24.7496 144.94 24.7815 144.54 24.6217C144.14 24.4618 143.725 23.7584 143.725 23.2948V13.3672H143.709Z" fill="white"/>
<path d="M115.236 5.77344V14.2783H120.911V5.77344H129.704L129.88 5.94929V30.9042C129.88 30.9202 129.624 31.192 129.592 31.192H121.087L120.911 31.0161V22.3355H115.236V31.0161L115.06 31.192H106.555C106.555 31.192 106.268 30.9362 106.268 30.9042V5.94929L106.443 5.77344H115.236Z" fill="black"/>
<path d="M168.776 13.7667C168.776 13.8147 168.68 13.9585 168.664 14.1024C168.6 14.7099 168.664 15.1575 168.328 15.749C168.792 15.829 168.872 15.2854 169.128 15.0136C172.149 11.6405 176.705 12.3919 179.375 15.765C182.508 19.7137 182.252 27.8828 177.584 30.6325C175.011 32.1512 171.254 32.0073 169.176 29.6893C167.097 27.3712 168.648 28.5542 168.088 28.4583C167.993 28.5542 168.664 30.8563 168.152 31.176H160.207L160.031 31.0002V5.77344H168.6L168.776 5.94929C168.632 8.50713 168.968 11.2408 168.776 13.7667ZM170.007 19.5218C167.545 19.9375 167.705 25.3249 170.998 24.8134C174.291 24.3018 172.868 23.4865 172.98 22.4793C173.172 20.6089 171.941 19.1861 170.007 19.5059V19.5218Z" fill="black"/>
<path d="M60.163 31.1762L60.0032 30.9843L60.211 28.9061C60.0671 28.7462 58.8521 30.1211 58.6763 30.2649C56.2303 32.2153 52.5375 32.0075 50.1715 30.0411C45.5034 26.1404 45.8871 16.7723 51.3545 13.7669C53.7364 12.456 56.7099 12.456 58.8521 14.2145C59.06 14.3743 59.9552 15.3975 60.0351 15.3975C60.2749 15.3975 60.1311 15.1737 60.1151 15.1097C60.0032 14.5822 59.6515 13.8468 60.0351 13.3672H68.3162L68.492 13.543V31.0003L68.3162 31.1762H60.147H60.163ZM57.4613 19.7458C55.2711 20.1295 55.0154 23.7105 57.0457 24.5258C58.4525 25.0853 59.9552 23.9982 60.179 22.5754C60.4028 21.1526 59.1878 19.4421 57.4613 19.7458Z" fill="black"/>
<path d="M21.2984 13.8306V30.9042C21.2984 30.9202 21.0426 31.192 21.0106 31.192H12.3939L12.218 31.0161V14.0065C12.1221 13.8466 11.9942 13.8466 11.8344 13.8306C10.2677 13.6548 8.46121 14.1504 6.89453 13.9425V5.77344H26.3501L26.526 5.94929V13.7667C26.526 13.7987 26.3022 14.0065 26.2222 14.0225L21.2984 13.8306Z" fill="black"/>
<path d="M143.709 13.3671V23.2947C143.709 23.7583 144.077 24.4457 144.524 24.6216C144.972 24.7974 145.787 24.7654 146.139 24.4777C146.491 24.1899 146.762 23.5025 146.762 23.2787V13.3511H155.219L155.395 13.5269V24.078C155.395 26.5719 153.461 28.9859 151.382 30.1689C146.826 32.7587 138.465 32.0713 135.796 27.0036C135.62 26.6678 135.076 25.1811 135.076 24.8774V13.3671H143.709Z" fill="black"/>
<path d="M85.5171 10.2016C84.462 9.62611 82.5596 10.0737 82.5596 11.5125V13.6067L85.3892 13.3829V20.1932C85.0375 20.1932 84.6698 20.2092 84.3181 20.1932C83.9664 20.1772 83.0552 19.8575 82.6715 20.1452V31.0321L82.4957 31.2079H74.1028L73.9269 31.0321V20.1452C73.847 20.0333 73.815 20.0014 73.6711 20.0014C73.0636 19.9854 72.1204 20.5129 71.5449 20.0333V13.5748C72.0725 13.1751 73.0477 13.6227 73.6711 13.6067C74.2946 13.5908 73.847 13.5588 73.9269 13.4629V9.2744C73.9269 9.21045 74.1667 8.10739 74.2147 7.96351C75.5096 3.37538 79.794 2.7519 83.9664 3.08762C84.43 3.11959 85.1175 3.2315 85.5011 3.48728V10.2336V10.2016H85.5171Z" fill="black"/>
<path d="M99.584 13.6068L102.414 13.383V20.1933C102.062 20.1933 101.694 20.2092 101.343 20.1933C100.991 20.1773 100.08 19.8575 99.6959 20.1453V31.0321L99.5201 31.208H91.1272L90.9513 31.0321V20.1453C90.6316 19.8575 89.9602 20.1613 89.5285 20.1933C89.0969 20.2252 88.8891 20.1933 88.5693 20.1933V13.5589C89.0969 13.1592 90.0721 13.6068 90.6955 13.5908C91.319 13.5748 90.8714 13.5429 90.9513 13.4469V9.48229C90.9513 6.73261 93.1734 4.14279 95.7473 3.39143C97.6657 2.81591 100.543 2.95979 102.478 3.40742L102.51 10.0258C102.43 10.3296 101.966 10.0258 101.678 9.99386C100.831 9.91393 99.584 10.4255 99.584 11.4167V13.6228V13.6068Z" fill="black"/>
<path d="M44.3372 12.6956V21.648C43.5698 21.2963 42.8824 20.8327 42.0032 20.7368C39.3974 20.481 38.2623 22.1596 38.0865 24.5416C37.9106 26.9236 38.0545 28.3464 38.0865 30.1049C38.1184 31.8634 38.3582 31.176 37.9266 31.176H29.6456L29.4697 31.0002V13.367H38.1504L38.3103 13.5589L38.1024 15.4613L38.3263 15.5252C39.3814 13.2871 42.0351 12.5677 44.3372 12.6956Z" fill="black"/>
<path d="M170.005 19.522C171.939 19.1863 173.17 20.6251 172.979 22.4955C172.883 23.5026 172.035 24.6696 170.996 24.8295C167.719 25.3251 167.543 19.9536 170.005 19.538V19.522Z" fill="white"/>
<path d="M57.4616 19.7456C59.2041 19.4418 60.4511 20.8806 60.1793 22.5752C59.9075 24.2698 58.4368 25.0851 57.046 24.5256C55.0157 23.7102 55.2715 20.1293 57.4616 19.7456Z" fill="white"/>
</svg>
