<svg width="216" height="216" viewBox="0 0 216 216" fill="none" xmlns="http://www.w3.org/2000/svg">
<path d="M156.5 49H167V59.5M156.5 167H167V156.5M59.5 49H49V59.5M59.5 167H49V156.5" stroke="#BDFD02"/>
<g clip-path="url(#clip0_500_318)">
<path d="M109.23 97.1504C111.874 97.1504 113.707 97.8897 114.77 99.0469C115.829 100.201 116.146 101.796 115.709 103.563L115.708 103.567C115.366 105.094 114.444 106.425 113.139 107.275L113.07 107.319V107.544L113.147 107.587C113.822 107.964 114.306 108.526 114.56 109.265C114.813 110.005 114.838 110.933 114.572 112.041C113.52 116.351 109.423 118.857 104.072 118.857H95.9268L93.4834 114.64L97.7764 97.1504H109.23ZM100.916 109.983L99.999 113.769L99.9541 113.953H105.396C106.694 113.953 107.525 113.714 108.063 113.338C108.606 112.958 108.83 112.452 108.945 111.97L108.989 111.785H108.955C109.039 111.347 109.019 110.881 108.681 110.515C108.302 110.105 107.565 109.864 106.291 109.868H100.943L100.916 109.983ZM102.845 102.183L102.061 105.258L102.014 105.445H106.91C108.033 105.445 108.755 105.225 109.225 104.896C109.638 104.605 109.841 104.239 109.952 103.9L109.995 103.757L109.996 103.753C110.092 103.353 110.13 102.899 109.785 102.561C109.455 102.237 108.813 102.063 107.694 102.07H102.874L102.845 102.183Z" fill="#007ACC" stroke="white" stroke-width="0.3"/>
<path d="M136.598 97.1504L135.467 102.055H125.107L125.078 102.166L124.263 105.241L124.213 105.43H134.685L133.554 110.334H123.019L122.991 110.449L122.216 113.762L122.172 113.945H134.722L133.533 118.85H114.572L119.892 97.1504H136.598Z" fill="#007ACC" stroke="white" stroke-width="0.3"/>
<path d="M157.809 97.1504L156.589 102.055H149.847L149.818 102.168L145.708 118.85H139.408L143.493 102.24L143.539 102.055H137.242L138.379 97.1504H157.809Z" fill="#007ACC" stroke="white" stroke-width="0.3"/>
<path d="M70.1084 97.1504L64.7969 118.85H58.4424L61.2783 107.297L61.9424 105.529L61.6953 105.371L59.9316 107.146L58.2236 108.884L58.1504 103.443L64.9727 97.1504H70.1084Z" fill="#002F5E" stroke="white" stroke-width="0.3"/>
<path d="M96.7666 97.1504L86.749 106.153L86.6582 106.235L86.7197 106.341L88.8447 109.961L88.9424 110.128L88.9482 110.121L93.9746 118.866H88.7461C86.4134 118.866 84.9884 118.565 84.0547 118.151C83.1306 117.742 82.6767 117.216 82.292 116.729L80.002 112.798L79.9092 112.639L79.7715 112.762L72.9873 118.85H64.3389L70.4404 113.156L70.4414 113.157L83.7363 100.896L83.7393 100.893L87.6143 97.1504H96.7666Z" fill="#002F5E" stroke="white" stroke-width="0.3"/>
<path d="M77.7002 97.1494C78.5603 97.1055 79.4179 97.2528 80.2129 97.5781L80.5498 97.7285C81.4076 98.1443 82.1499 98.7647 82.7168 99.5332L75.9238 105.815L70.8604 97.1504H77.6924L77.7002 97.1494Z" fill="#002F5E" stroke="white" stroke-width="0.3"/>
</g>
<defs>
<clipPath id="clip0_500_318">
<rect width="100" height="22" fill="white" transform="translate(58 97)"/>
</clipPath>
</defs>
</svg>
