<svg width="216" height="216" viewBox="0 0 216 216" fill="none" xmlns="http://www.w3.org/2000/svg">
<path d="M156.5 49H167V59.5M156.5 167H167V156.5M59.5 49H49V59.5M59.5 167H49V156.5" stroke="#BDFD02"/>
<path d="M66.4902 100.48C66.4934 100.488 66.4952 100.497 66.4961 100.504V100.509L66.4941 100.523L64.1162 114.282L64.0811 114.483L64.2832 114.456C64.388 114.443 64.469 114.381 64.5234 114.33L64.6602 114.185C68.9557 109.6 73.2292 104.99 77.5938 100.482H83.583C83.5638 100.506 83.5403 100.533 83.5088 100.56C83.4611 100.601 83.4084 100.638 83.3467 100.685C83.3173 100.707 83.2856 100.731 83.2549 100.757L83.165 100.841C81.2694 102.843 79.4426 104.895 77.5156 106.856L77.4961 106.875L77.4854 106.9L77.4268 107.032L77.3945 107.103L77.4355 107.17L82.5596 115.574C82.0393 115.564 81.4844 115.588 80.9238 115.612C80.259 115.639 79.5837 115.664 78.9307 115.626C77.7053 115.555 76.5845 115.265 75.7793 114.391L75.6221 114.208C75.2818 113.783 74.9847 113.28 74.6895 112.76C74.3962 112.244 74.1042 111.71 73.7783 111.241L73.7422 111.189L73.6797 111.178L73.5918 111.177C73.507 111.188 73.4326 111.234 73.377 111.276C73.2971 111.336 73.2194 111.417 73.1504 111.498C73.0806 111.58 73.0136 111.667 72.957 111.741L72.8232 111.908C71.6614 113.122 70.4608 114.34 69.3115 115.555C66.1112 115.697 62.9016 115.634 59.6836 115.646C59.6836 115.628 59.6823 115.61 59.6826 115.592L59.6934 115.398C59.8403 113.84 60.2078 111.846 60.5635 110.062L60.9062 108.371C61.0394 107.724 61.2074 107.091 61.3926 106.455L61.4893 106.126L61.1816 106.28L58.4199 107.657L58.416 107.654V104.186C58.4173 104.178 58.4191 104.167 58.4219 104.154C58.4274 104.127 58.4352 104.092 58.4434 104.058C58.4514 104.024 58.4589 103.991 58.4658 103.965L63.4863 100.48H66.4902Z" fill="#003060" stroke="white" stroke-width="0.3"/>
<path d="M149.482 100.176C151.517 100.038 153.095 100.546 154.239 101.446C155.385 102.347 156.109 103.651 156.416 105.122C157.012 107.977 156.036 111.443 153.566 113.746L153.322 113.966C151.505 115.543 148.974 116.152 146.719 115.725C144.468 115.298 142.502 113.841 141.788 111.288H141.789C140.371 106.21 144.138 100.703 149.236 100.195L149.48 100.176H149.482ZM149.381 104.189L149.137 104.212C146.96 104.463 145.563 106.457 145.358 108.317C145.256 109.252 145.45 110.177 146.019 110.845C146.555 111.475 147.406 111.855 148.591 111.818L148.832 111.806C151.134 111.632 152.543 109.581 152.722 107.675C152.811 106.718 152.596 105.773 152.006 105.103C151.449 104.471 150.578 104.107 149.381 104.189Z" fill="#19BCEE" stroke="white" stroke-width="0.3"/>
<path d="M138.805 115.471C138.79 115.472 138.773 115.475 138.754 115.476C138.664 115.48 138.543 115.478 138.413 115.473C138.284 115.468 138.151 115.461 138.035 115.455L137.764 115.447C137.651 115.451 137.472 115.467 137.27 115.483C137.064 115.498 136.829 115.515 136.601 115.523C136.371 115.531 136.151 115.53 135.974 115.512C135.885 115.503 135.81 115.49 135.752 115.473C135.713 115.462 135.687 115.449 135.67 115.44L132.607 108.361L132.415 107.915L132.322 108.392L130.944 115.478L130.875 115.516L127.126 115.452L129.794 100.583L132.932 100.564L136.079 107.574L136.277 108.015L136.364 107.539L137.627 100.559L141.433 100.485L138.805 115.471Z" fill="#19BCEE" stroke="white" stroke-width="0.3"/>
<path d="M103.463 100.482C104.222 100.499 104.999 100.541 105.765 100.543L107.611 115.516V115.517H103.657C103.565 115.279 103.536 114.996 103.525 114.687C103.514 114.352 103.526 113.973 103.484 113.642L103.468 113.51H99.3037L99.1924 113.397L99.1025 113.597L98.2656 115.454L98.2139 115.489L93.9746 115.516L101.142 100.576C101.907 100.472 102.681 100.464 103.463 100.482ZM100.594 110.105L100.501 110.316H103.179L103.167 110.155L102.849 105.691L102.562 105.641L100.594 110.105Z" fill="#19BCEE" stroke="white" stroke-width="0.3"/>
<path d="M87.6494 100.521C90.3633 99.6927 93.3087 100.176 95.1318 102.405L95.3047 102.626C95.3628 102.704 95.5618 102.995 95.7373 103.28C95.8249 103.422 95.9043 103.559 95.957 103.666C95.9708 103.694 95.9804 103.719 95.9893 103.74L92.376 105.691C91.8858 104.943 91.3121 104.362 90.3789 104.214L90.1777 104.189C89.0545 104.089 88.061 104.367 87.1875 105.053L87.0146 105.196C85.8276 106.221 85.2475 107.949 85.458 109.381C85.5638 110.1 85.8706 110.755 86.4131 111.207C86.9576 111.66 87.7231 111.893 88.7148 111.8L88.7139 111.799C89.7342 111.702 90.6623 111.012 91.2295 110.2L94.4512 112.308C94.4411 112.33 94.4292 112.358 94.4102 112.388C94.3836 112.431 94.353 112.475 94.3232 112.516C94.2958 112.554 94.2652 112.596 94.2461 112.625C92.8683 114.699 90.3322 115.852 87.876 115.848C85.5005 115.844 83.2243 114.76 82.1484 112.409L82.0488 112.176C81.1312 109.938 81.4027 107.368 82.4746 105.18C83.4797 103.129 85.1807 101.43 87.2344 100.663L87.6494 100.521Z" fill="#19BCEE" stroke="white" stroke-width="0.3"/>
<path d="M114.729 100.206C117.079 99.8583 119.597 100.865 120.598 103.457L117.322 105.348C117.147 104.86 116.868 104.485 116.495 104.24C116.129 104 115.685 103.894 115.185 103.917L114.966 103.934C114.64 103.972 114.317 104.166 114.122 104.433C113.923 104.706 113.848 105.072 114.061 105.424C114.17 105.606 114.392 105.765 114.642 105.904C114.898 106.047 115.209 106.182 115.525 106.307C115.842 106.433 116.17 106.55 116.457 106.654C116.602 106.707 116.735 106.756 116.853 106.801L117.152 106.926H117.153C118.126 107.382 118.832 107.896 119.257 108.564C119.627 109.145 119.794 109.858 119.721 110.784L119.675 111.194C119.455 112.717 118.796 113.838 117.839 114.597C116.94 115.311 115.767 115.715 114.425 115.824L114.154 115.841H114.153C112.807 115.911 111.471 115.692 110.39 115.103C109.341 114.532 108.527 113.61 108.172 112.247L111.5 110.431C111.608 110.595 111.705 110.771 111.824 110.961C111.929 111.127 112.048 111.296 112.197 111.442L112.357 111.58C112.721 111.852 113.384 112.037 114.013 112.066C114.33 112.081 114.65 112.056 114.929 111.978C115.171 111.91 115.393 111.798 115.552 111.626L115.616 111.548C115.787 111.316 115.848 111.09 115.802 110.878C115.757 110.671 115.618 110.507 115.458 110.379C115.221 110.188 114.897 110.046 114.631 109.94L114.389 109.846L113.499 109.504C112.626 109.168 111.818 108.828 111.188 108.329C110.774 108 110.441 107.603 110.226 107.096C110.037 106.652 109.934 106.115 109.949 105.453L109.963 105.161C110.166 102.3 112.342 100.558 114.729 100.206Z" fill="#19BCEE" stroke="white" stroke-width="0.3"/>
<path d="M123.434 100.536C123.444 100.534 123.461 100.533 123.495 100.537C123.523 100.539 123.571 100.545 123.616 100.545H127.278L124.598 115.468C124.548 115.495 124.495 115.499 124.421 115.49C124.368 115.483 124.323 115.472 124.257 115.46C124.227 115.455 124.194 115.45 124.16 115.447L124.054 115.444C123.173 115.487 122.165 115.579 121.272 115.543L120.898 115.519C120.872 115.517 120.848 115.515 120.827 115.514C120.805 115.513 120.789 115.512 120.773 115.511C120.766 115.511 120.76 115.509 120.755 115.508C120.753 115.496 120.75 115.478 120.75 115.449L123.413 100.589C123.421 100.555 123.429 100.54 123.433 100.536H123.434Z" fill="#19BCEE" stroke="white" stroke-width="0.3"/>
<path d="M68.9844 100.476C69.6614 100.46 70.3318 100.445 70.9873 100.479V100.48C71.9716 100.53 72.8117 100.673 73.6172 101.176L73.7783 101.281V101.282C73.844 101.327 74.046 101.476 74.2197 101.634C74.3072 101.713 74.3817 101.79 74.4287 101.854C74.4414 101.871 74.4485 101.886 74.4551 101.898L72.3965 104.068L72.3955 104.069L70.5732 106.036L67.2314 100.489C67.8129 100.502 68.4013 100.489 68.9844 100.476Z" fill="#003060" stroke="white" stroke-width="0.3"/>
</svg>
