<svg width="216" height="216" viewBox="0 0 216 216" fill="none" xmlns="http://www.w3.org/2000/svg">
<path d="M156.5 49H167V59.5M156.5 167H167V156.5M59.5 49H49V59.5M59.5 167H49V156.5" stroke="#BDFD02"/>
<path fill-rule="evenodd" clip-rule="evenodd" d="M88.8126 96.0886C70.7242 98.1188 57 102.509 57 107.019C57 107.482 57 108.193 57 108.193C57 108.193 58.9637 108.193 61.8284 108.304C64.5428 108.304 73.907 108.193 82.9214 108.193H91.1691H99.024L101.553 103.497L103.672 99.1926H109H114.328L118.661 107.802L122.995 116.411H120.292C118.279 116.411 118.269 116.411 117.09 114.846C116.908 114.481 116.725 114.117 116.582 113.832C116.412 113.494 116.068 113.28 115.69 113.28C114.592 113.28 112.133 113.28 109.21 113.28C104.944 113.28 101.773 113.28 101.773 113.28C101.773 113.28 101.298 114.228 100.988 114.846C100.431 115.883 99.4238 116.523 97.8458 116.523C96.7872 116.523 95.4893 116.523 95.4893 116.523C95.4893 116.523 95.6766 115.492 95.8687 114.889C96.0677 114.264 96.2748 112.889 96.2748 112.889C96.2748 112.889 91.5618 112.889 78.9939 112.889C69.3598 112.758 60.9275 112.889 60.9275 112.889C60.9275 112.889 66.0819 115.745 71.1743 117.151C90.8957 122.596 129.51 122.202 148.487 116.361C157.485 113.592 160.435 111.188 159.949 107.019C159.546 103.561 149.658 99.4822 136.077 97.171C120.292 94.4845 97.7649 94.4966 88.8126 96.0886ZM106.879 103.106C106.879 103.106 104.522 107.998 104.522 108.193C104.13 108.193 106.848 108.193 109.235 108.193H113.556L111.199 103.106H106.879Z" fill="white"/>
</svg>
