<svg width="216" height="216" viewBox="0 0 216 216" fill="none" xmlns="http://www.w3.org/2000/svg">
<path d="M156.5 49H167V59.5M156.5 167H167V156.5M59.5 49H49V59.5M59.5 167H49V156.5" stroke="#BDFD02"/>
<path d="M75.9895 126.121H81.23V125.047H82.3105V123.973H83.391V122.899H84.4715V126.121H89.7121V125.047H90.7926V123.973H91.8731V122.899H92.9536V121.826V126.121H98.1941V125.047H98.7344V126.121H105.542L105.596 125.047H105.92V126.121H111.16M111.214 126.121H116.401L116.563 125.047H117.481L117.643 124.134H117.914L118.184 126.121H123.532L123.37 125.047H124.667L124.505 123.973H124.991V126.121H130.231V125.047H131.312V123.973H132.231V126.121H140.443L140.497 125.047H140.929V125.691H140.983C142.495 126.121 144.008 126.336 145.521 126.336C147.412 126.336 148.763 125.745 149.519 124.618C149.951 124.349 150.329 123.973 150.653 123.544C151.085 123.275 151.464 122.899 151.734 122.47C152.166 122.201 152.544 121.826 152.815 121.396C153.247 121.128 153.625 120.752 153.895 120.322C154.381 120.054 154.759 119.678 155.029 119.248C155.461 118.98 155.84 118.604 156.11 118.175C157.299 117.477 157.893 116.188 157.893 114.309C157.893 112.752 157.515 111.678 156.758 110.98C156.596 110.819 156.434 110.712 156.218 110.604L156.272 109.96L157.245 110.121L157.623 105.826H157.515C155.948 105.503 154.381 105.396 152.923 105.396C151.464 105.396 150.275 105.826 149.465 106.631C149.303 106.792 149.195 106.953 149.033 107.168C148.763 107.329 148.547 107.49 148.384 107.705C148.384 107.705 148.384 107.758 148.33 107.758L148.492 105.611H139.956V106.685H139.74L139.794 105.611H131.096L131.042 106.685H130.015L129.961 107.758H129.421L129.097 105.665V105.611H125.315V105.235H126.396V104.161H127.476V91.0068H122.938V92.0806H121.858V92.2954L121.263 90.9531H116.401V92.027H116.185L116.239 90.9531H107.649V92.027H106.892L106.838 91.0605V91.0068H100.679L100.571 92.0806H99.7069L99.5988 91.0068H93.5479L93.4939 92.0806H92.8455L92.8996 91.0068H84.2554H75.7193V92.0806H74.6388V92.2417C73.9905 91.3827 72.91 90.9531 71.3432 90.9531H64.4279V92.027H63.3474V93.1008H62.2669V94.1746H61.1863V95.2484H60.1058V96.3223H59.0253V97.3961H57.9448V98.4699H56.8643V111.571H63.7796C65.2383 111.571 66.3188 111.248 66.9131 110.55C67.0752 110.389 67.2373 110.175 67.3453 109.96C67.6154 109.799 67.8315 109.638 67.9936 109.477C68.0477 109.423 68.0477 109.423 68.1017 109.369V110.873H68.0477L67.8855 111.946H66.9671L66.8051 113.02H65.8866L63.7255 126.014V126.121H68.9121L69.0741 125.047H69.9926L70.1547 124.134H70.4248L70.5869 126.121H75.9354" fill="#E5463E"/>
<path d="M69.4521 94.3357V94.4968V95.8391V96.0538V96.4833H69.9924H70.2085V94.7652V94.5505V94.1209H69.4521V94.3357ZM69.6142 96.2149V96.0001V94.6042V94.3894V94.3357H69.9924V94.4968V94.7115V96.3223H69.7763H69.6683V96.2149H69.6142Z" fill="#2B2523"/>
<path d="M69.4521 98.6846V98.7383V101.101V101.423H69.6142H69.8843H70.2625V101.101V100.779V98.6846H69.7223H69.4521ZM69.9924 98.8993V101.047V101.262H69.7223H69.6142V98.8993H69.6683H69.9924Z" fill="#2B2523"/>
<path d="M77.718 113.879L77.772 111.087H77.2858H77.0697H77.0156V113.879H77.5559H77.718ZM77.2318 113.718V111.893V111.302H77.3398H77.61V112.913V113.665H77.5559H77.2318V113.718Z" fill="#2B2523"/>
<path d="M156.758 110.98C156.596 110.819 156.434 110.711 156.218 110.604L156.272 109.96L157.245 110.121L157.569 105.826H157.461C155.84 105.503 154.327 105.396 152.869 105.396C151.356 105.396 150.221 105.826 149.411 106.631C149.249 106.792 149.087 106.953 148.979 107.168C148.709 107.329 148.492 107.49 148.33 107.705C148.33 107.705 148.33 107.758 148.276 107.758V108.134C148.276 108.081 148.33 108.081 148.33 108.027C148.384 107.973 148.438 107.92 148.438 107.866C148.547 107.812 148.601 107.705 148.709 107.651C148.655 107.758 148.601 107.812 148.601 107.92C148.546 108.027 148.546 108.081 148.492 108.188C148.438 108.349 148.384 108.564 148.33 108.779C148.33 108.832 148.276 108.94 148.276 108.993C148.222 109.208 148.222 109.477 148.168 109.745C148.168 109.799 148.168 109.906 148.168 109.96C148.168 110.067 148.168 110.121 148.168 110.228C148.168 110.443 148.168 110.658 148.168 110.819C148.168 110.873 148.168 110.98 148.168 111.034C148.222 111.356 148.276 111.678 148.384 112C148.384 112.054 148.438 112.161 148.438 112.215C148.601 112.644 148.817 113.02 149.087 113.289C149.141 113.396 149.249 113.45 149.357 113.557C149.357 113.611 149.411 113.611 149.411 113.611C149.465 113.665 149.519 113.718 149.573 113.772C149.573 113.772 149.573 113.772 149.627 113.826C149.681 113.879 149.735 113.879 149.735 113.933C149.789 113.987 149.843 114.04 149.951 114.04C150.113 114.148 150.329 114.255 150.545 114.363C150.599 114.416 150.653 114.416 150.761 114.47C150.761 114.47 150.815 114.524 150.869 114.524C151.085 114.631 151.301 114.685 151.572 114.792C151.626 114.792 151.68 114.846 151.734 114.846C152.004 114.953 152.382 115.007 152.706 115.114V115.275L151.788 115.06H151.734L151.626 114.846L151.139 114.738L150.869 114.685L150.653 114.631L149.843 114.47L149.681 114.416L148.763 114.201V114.577C148.709 114.524 148.655 114.47 148.601 114.47C148.384 114.255 148.168 114.04 148.006 113.772L148.168 110.55H147.412C147.412 110.336 147.466 110.175 147.466 110.014H148.168L148.438 105.611H139.902V106.685H139.686L139.74 105.611H131.096L131.042 106.685H129.961L129.907 107.758H129.367L129.043 105.665V105.611H125.261V105.235H126.341V104.161H127.422V91.0068H122.884V92.0806H121.803V92.2954L121.209 90.9531H116.347V92.0269H116.131V92.0806L116.185 90.8994H107.649V91.9732H106.892L106.838 91.0068H100.679L100.571 92.0806H99.7069L99.5988 91.0068H93.5479L93.4939 92.0806H92.8455V92.2954H93.4939L93.4399 93.1544V93.3155V94.1746V94.3893V95.2484V95.4632L93.3858 96.3759V96.537L93.2777 98.5236V98.7383L93.2237 99.5974L93.1697 100.779L93.1157 103.034L93.0617 104V104.107H93.1697H93.2237H93.3858H93.9801H94.1962H94.3583H94.5744H95.0606H95.2767H95.6009H95.817H96.1411L96.0871 105.02H95.817H95.6009H95.1687H94.9526H94.5744H94.3583H94.0881H93.8721H93.3858H93.2777H93.1157H92.8996H92.2513H92.1432L92.1973 104.107L92.2513 103.141L92.3053 101.852L92.4674 97.6645V97.4497L92.5214 96.5907V96.4296L92.5754 95.5169V95.4095H92.7375L93.0077 91.0068H84.3635H75.7193V92.0806H74.6388V92.2417C73.9905 91.4363 72.91 91.0068 71.3432 91.0068H64.4279V92.0806H63.3474V93.1544H62.2669V94.2283H61.1863V95.3021H60.1058V96.3759H59.0253V97.4497H57.9448V98.5236H56.8643V111.624H63.7796C65.2383 111.624 66.3188 111.302 66.9131 110.604C67.0752 110.443 67.2373 110.228 67.3453 110.014C67.6154 109.906 67.8315 109.691 67.9936 109.53C68.0477 109.477 68.0477 109.477 68.1017 109.423V110.926H68.3177V109.154C68.3718 109.101 68.4258 108.993 68.4799 108.94C68.75 108.832 68.9661 108.618 69.1822 108.456C69.2362 108.403 69.2362 108.403 69.2902 108.349V109.852H69.4523V108.134C69.5063 108.081 69.5603 107.973 69.6144 107.92C69.8845 107.812 70.1006 107.651 70.2627 107.436C70.3167 107.383 70.3167 107.383 70.3707 107.329V108.832H70.5328V107.114C70.5869 107.06 70.6409 106.953 70.6949 106.899C70.9651 106.792 71.1811 106.577 71.3432 106.416C71.3973 106.363 71.3973 106.363 71.4513 106.309V107.812H71.6674V106.04C71.7214 105.987 71.7754 105.879 71.8295 105.826C72.0996 105.718 72.3157 105.503 72.4777 105.342C72.5318 105.289 72.5318 105.289 72.5858 105.235V106.738H72.7479V105.02C72.8019 104.967 72.8559 104.859 72.91 104.805C73.1801 104.698 73.3962 104.483 73.5583 104.322C73.6123 104.269 73.6123 104.269 73.6663 104.215V105.718H73.8825V104C73.9365 103.946 73.9905 103.839 74.0445 103.785C74.3147 103.678 74.5307 103.463 74.6928 103.302C74.7469 103.248 74.7469 103.195 74.8009 103.195V103.732V103.946V105.45H75.4492H75.9895H76.1515H77.0159H77.2321H79.6092H79.7713H80.5817H80.7977H81.6081L81.5541 106.309L81.6081 106.685L81.5001 105.879V105.826H73.4502L73.2881 106.899H72.3697L72.2077 107.973H71.2892L71.1271 109.047H70.2087L70.0466 110.121H69.1281L68.9661 111.195H68.0476L67.8855 112.269H66.9671L66.8051 113.342H65.8866L63.7255 126.282V126.389H68.9121L69.0741 125.316H69.9926L70.1547 124.403H70.4248L70.5869 126.121H75.9354H81.1759V125.047H82.2565V123.973H83.337V122.899H84.4175V121.826V126.121H89.658V125.047H90.7385V123.973H91.8191V122.899H92.8996V121.826V126.121H98.1401V125.047H98.6803V126.121H105.488L105.542 125.047H105.866V126.121H111.106V125.047H111.268L111.106 126.014V126.121H116.293L116.455 125.047H117.373L117.535 124.134H117.806L118.076 126.121H123.424L123.262 125.047H124.559L124.397 123.973H124.883V126.121H130.123V125.047H131.204V123.973H132.123V126.121H140.335L140.389 125.047H140.821V125.691H140.875C142.387 126.121 143.9 126.336 145.413 126.336C147.358 126.336 148.655 125.745 149.411 124.564C149.843 124.295 150.221 123.92 150.491 123.49C150.923 123.222 151.301 122.846 151.572 122.416C152.004 122.148 152.382 121.772 152.652 121.342C153.085 121.074 153.463 120.698 153.733 120.269C154.165 120 154.543 119.624 154.867 119.195C155.299 118.926 155.678 118.55 155.948 118.121C157.137 117.423 157.731 116.134 157.677 114.255C157.893 112.752 157.515 111.624 156.758 110.98ZM140.118 118.228V118.014V117.477V117.316V117.208V116.993V116.456V116.242V116.134V115.92V115.383V115.168V113.235V113.02V112.161V112V111.087V110.873V110.014V109.799V108.94V108.725V107.866V107.705V106.792V106.577V105.718H148.276L148.006 109.745H147.141H146.979H146.169H145.953H145.143H144.981V110.658H145.089H145.899H146.115H146.979H147.141H147.952L147.79 113.933H146.925H146.763H145.899H145.683H144.927V114.846H145.629H145.845H146.709H146.871H148.222L147.952 118.389H147.141H146.925H146.115H145.953H145.143H144.927H143.63H142.603H142.441H141.577H141.415H140.659H140.551H140.335H140.226V118.228H140.118ZM147.25 109.96C147.196 110.175 147.196 110.336 147.196 110.497H147.141L147.196 109.96H147.25ZM146.979 109.96L146.925 110.497H146.115H145.899H145.143V109.96H145.953H146.169H146.979ZM146.709 114.148V114.685H145.845H145.629H145.143V114.148H145.683H145.899H146.709ZM139.902 106.792V107.651V107.866V108.725V108.94V109.852V110.014V110.873V111.087V111.946V112.161V113.02V113.235V115.114V115.329V115.866V116.081V116.188V116.403V116.94V117.154V117.262V117.423V117.96V118.175V118.604H140.226H140.443H140.551H140.767H141.307H141.469H142.333H142.549H144.927H145.143H145.953H146.169H146.979L146.925 119.463H146.115H145.899H145.089H144.873H144.062H143.846H142.441H141.415H141.253H140.389H140.172H139.47H139.038V118.175V117.96V117.423V117.262V117.154V116.94V116.403V116.188V113.235V113.02V112.161V112V111.087V110.873V110.014V109.906H139.524L139.686 106.792H139.902ZM140.497 122.899H140.713H141.523H141.739H142.549L142.495 123.812H141.685H141.469H140.659H140.443H134.661V121.826V120.752H135.58V122.899H140.497ZM141.685 122.738H141.523H140.713H140.497H135.742V120.752V119.678H136.661V121.826H137.309H137.525H141.631H141.847H142.657H142.819H143.63L143.576 122.685H142.765H142.603H141.685V122.738ZM142.819 121.665H142.603H141.793H141.577H140.281H137.255H136.823V119.678V118.604H137.741V120.752H138.389H138.551H140.118H140.335H142.711H142.927H143.738H143.954H144.765L144.711 121.611H143.9H143.684H142.819V121.665ZM143.9 120.591H143.684H142.873H142.711H141.361H140.335H140.172H138.389H137.957V118.604V110.98H138.443L138.497 109.906H138.821V110.014V110.873V111.087V111.946V112.161V113.02V113.235V116.188V116.403V116.94V117.154V117.262V117.423V117.96V118.175V119.678H139.47H139.632H140.172H140.389H141.253H141.415H143.792H144.008H144.819H145.035H145.845L145.791 120.537H144.981H144.765H143.9V120.591ZM137.903 110.819V109.906H138.281L138.227 110.819H137.903ZM131.15 108.94V108.725L131.204 107.866V107.705L131.258 106.846V106.631L131.312 105.718H139.578L139.362 109.745H138.551H138.335H137.795V110.819V111.034V118.443H136.877H136.661H135.742H135.526H134.607H134.391H133.473H133.257H132.825V116.403V115.329V115.168V113.772V112.161V112V111.087V110.873V110.014V109.799V109.691H131.096L131.15 108.94ZM130.015 110.014V109.799L130.069 108.94V108.725L130.123 107.866V107.705L130.177 106.846H131.042L130.988 107.705V107.866L130.934 108.725V108.94L130.88 109.799V109.906H132.663V110.014V110.926V111.087V111.946V112.161V115.114V115.275V116.134V116.349V118.604H133.311H133.527H134.445H134.661H135.58H135.796H136.715V119.463H135.796H135.58H134.661H134.445H133.527H133.311H132.393H132.177H131.744V117.369V116.295V116.081V114.738V113.235V113.02V112.161V112V111.087V110.873V110.765H130.015V110.014ZM129.961 110.98H131.582V111.087V111.946V112.161V113.02V113.235V116.188V116.403V117.262V117.477V119.678H132.231H132.447H133.365H133.581H134.499H134.716H135.634V120.537H134.716H134.499H133.581H133.365H132.447H132.231H131.312H131.096H130.664V118.604H131.204L129.799 110.336L129.961 110.98ZM81.4461 120.752L81.284 119.678H81.4461V120.591V120.752ZM81.23 119.517H81.0139H79.9333H79.7713H78.6907H78.4747H77.3941H77.3401L77.07 117.53H76.9079H76.6377L76.7458 116.725V116.671H76.9079H77.9884L78.2585 118.658H78.3126H78.5287H79.6092H79.8253H80.9058H81.1219H82.2025L82.3645 119.517H81.23ZM80.1495 120.591H79.9333H78.8528H78.6907H77.6102H77.4481H76.3677L75.9895 118.604H76.4757L76.5837 117.691H76.8539L77.124 119.678H77.178H77.3941H78.4747H78.6907H79.7713H79.9874H81.0679L81.23 120.537H80.1495V120.591ZM80.3115 120.752V121.665L80.2035 120.752H80.3115ZM79.231 122.899L79.0689 121.826H79.231V122.846V122.899ZM79.0689 121.665H78.8528H77.7723H77.6102H76.5297H76.3136H75.2331L74.9089 119.678H75.3952L75.5573 118.765H75.8274L76.0975 120.752H76.1515H76.3677H77.4481H77.6102H78.6907H78.9069H79.9874L80.1495 121.611H79.0689V121.665ZM77.9344 122.738H77.7183H76.6377H76.4217H75.3411H75.1251H73.9905L73.7744 120.752H74.2606L74.3687 119.839H74.6388L74.9089 121.826H74.9629H75.1791H76.2596H76.5297H77.6102H77.7723H78.8528L79.0149 122.685H77.9344V122.738ZM78.1505 122.899V123.812L77.9884 122.899H78.1505ZM77.07 125.047L76.9079 123.973H77.07V124.886V125.047ZM76.8539 123.812H76.6377H75.5573H75.3952H72.964L72.6939 121.826H73.1801L73.3422 120.913H73.6123L73.8825 122.899H75.2331H75.4492H76.5297H76.7458H77.8263L77.9884 123.812H76.8539ZM81.6081 119.678H82.5266H83.1749H83.337H83.7152H83.8773H84.2554H84.4175H84.6876H84.9037H85.3359H85.5521H86.4705V120.537H85.5521H85.3359H84.4175H84.2554H83.8232H83.6611H83.337H83.1749H82.2565H82.0944H81.6622V119.678H81.6081ZM82.3645 118.604H82.5266V119.624L82.3645 118.604ZM85.5521 119.517H85.3359H84.9037H84.7417H84.4175H84.2554H83.8773H83.7152H83.337H83.1749H82.7427V118.604H83.6611H83.8232H83.9853H84.3095H84.4715H84.8497H85.0118H85.39H85.6061H85.8762H86.0383H86.4705H86.6326H87.551V119.463H86.6326H86.4705H85.5521V119.517ZM83.7152 99.5974L83.8773 96.2685V96.4296H84.7417V96.537V97.3961V97.6108V98.4699V98.6847V101.638V101.852V102.711V102.926V105.181H85.39H85.6061H86.5245H86.7406H87.6591H87.8751H88.7936V105.557H83.9853V104.107H84.0393L84.3095 100.188H83.9853V98.7383V98.5236V97.6645V97.4497V97.3961L83.7152 99.5974ZM91.2248 96.4296V96.537L91.1707 97.3961V97.6108L91.1167 98.4699V98.6847L91.0627 100.51V96.4833H91.2248V96.4296ZM91.0627 96.2685V95.3558H91.4409L91.3869 96.2685H91.0627ZM90.9006 105.128V105.503H90.0362L90.0902 104.054H90.9547L90.9006 105.128ZM89.8201 105.557H88.9557V105.181H89.8201V105.557ZM83.6611 105.557V106.631H82.7967V105.181H82.8507L82.9048 104.107H83.6611V105.557ZM82.7427 113.074V112.161V112V111.087V110.873V110.014V109.799V108.94V108.725V107.866V107.705V106.792H83.6611V107.651V107.866V108.725V108.94V109.852V110.014V110.873V111.087V111.946V112.161V113.02V113.235V115.114V115.329V115.866V116.081V116.188V116.403V116.94V117.154V117.262V117.423V117.96V118.175V118.443V118.55L82.7427 113.074ZM86.6326 118.443H86.4705H86.0383H85.8762H85.5521H85.3359H84.9577H84.7417H84.3635H84.2014H83.8773H83.7152V118.014V117.477V117.316V117.208V116.993V116.456V116.242V116.134V115.92V115.383V115.168V113.235V113.02V112.161V112V111.087V110.873V110.014V109.799V108.94V108.725V107.866V107.705V106.792V106.577V105.718H91.657L91.3869 109.745H90.5225H90.3603H89.4959H88.6855V110.658H89.4419H89.604H90.4684H90.6305H91.4409L91.2788 113.826H90.4144H90.2523H89.3879H89.2258H88.6315V114.899V115.114V115.973V116.134V118.389H87.7131H87.551H86.6326V118.443ZM91.0627 109.96V110.014V110.497H90.6305L90.6845 109.96H91.0627ZM90.4684 109.96L90.4144 110.497H89.55H89.3879H88.7936V109.96H89.3879H89.55H90.4684ZM88.8477 115.114H89.1718L89.1177 115.973H88.8477V115.114ZM88.8477 114.953V114.04H89.2258H89.3879H90.2523L90.1983 114.953H89.3339H89.1718H88.8477ZM90.1443 118.228V118.014V117.477V117.316V115.168H90.3603L90.4144 114.094H91.0627V116.242V116.456V116.993V117.208V117.316V117.477V118.014V118.228V119.678H91.711H91.8731H92.2513H92.4133H92.7915H92.9536H93.2777H93.4939H93.9261H94.1422H95.0606V120.537H94.1422H93.9261H93.0077H92.8455H92.4133H92.1973H91.8731H91.711H90.7926H90.6305H90.1983V118.228H90.1443ZM94.0881 119.517H93.8721H93.4399H93.2777H92.9536H92.7915H92.4133H92.2513H91.8731H91.711H91.2788V118.228V118.014V117.477V117.316V117.208V116.993V116.456V116.242V114.094H91.4949L91.657 110.55H91.2248V110.014V109.96H91.657L91.8731 106.792H92.0892V107.651V107.866V108.725V108.94V109.852V110.014V110.873V111.087V111.946V112.161V113.02V113.235V115.114V115.329V115.866V116.081V116.188V116.403V116.94V117.154V117.262V117.423V117.96V118.175V118.604H92.2513H92.4133H92.7375H92.8996H93.2777H93.4399H93.818H94.0341H94.3043H94.4663H94.8985H95.0606H95.9791V119.463H95.0606H94.8985H94.0881V119.517ZM91.9271 106.201H91.9811H92.1432V106.577H91.9271V106.201ZM106.136 104.054H106.514V105.128H107.162H107.379H107.919H108.081H108.945H109.161H111.539H111.755H112.565H112.781H113.592L113.538 105.987H112.727H112.511H111.647V105.503H106.406V105.987H106.082H105.92V106.148H106.082H106.298H106.46V106.524H105.92V105.45H105.65V105.074H106.19L106.136 104.054ZM115.374 105.128H116.293H116.509H116.779H116.995H117.427H117.643H118.454H118.562V105.342V105.557H114.348V105.181H114.726L114.78 104.107H115.212V104.913V105.128H115.374ZM118.67 105.289V105.128H119.588H119.805V104.644L120.561 106.201H120.669H120.885H120.939V106.094L120.831 106.631H119.913L119.805 107.114H119.75H119.534L118.832 105.718V105.557H118.724L118.67 105.289ZM119.156 118.604H119.318H119.696H119.913H122.02H122.128H122.344H122.992V118.765L122.884 119.463H122.452H122.236H122.074H121.858H118.778H118.562H118.184H117.968V119.356L118.076 118.55H118.778V114.255L118.94 113.128L118.994 112.913L119.156 112.054L119.21 111.893L119.372 111.034L119.426 110.819L119.588 109.906L119.642 109.691L119.805 108.832L119.859 108.618L120.021 107.758L120.075 107.597L120.237 106.738H120.939L120.777 107.597L120.723 107.758L120.561 108.618L120.507 108.832L120.345 109.691L120.291 110.014L120.129 110.926L120.075 111.141L119.913 112L119.859 112.161L119.696 113.02L119.75 113.235L119.21 116.51L119.102 117.047L118.832 118.497V118.604H119.156ZM97.7079 115.114L97.6539 115.973H97.3837V115.114H97.7079ZM97.3837 114.953V114.04H97.7619H97.924H98.7884L98.7344 114.953H97.87H97.7079H97.3837ZM97.5999 116.188H97.8159L97.87 115.114H98.4643V120.752H99.1126H99.3287H100.247H100.463H101.382H101.544H102.462V121.611H101.544H101.382H100.463H100.247H99.3287H99.1126H98.1941H98.0321H97.5999V116.188ZM101.544 120.591H101.382H100.463H100.247H99.3287H99.1126H98.6803V115.114H98.8965L98.9505 114.04H99.5448V119.678H100.193H100.409H101.328H101.49H102.408H102.57H103.543V120.537H102.624H102.462H101.544V120.591ZM99.7609 110.497V110.014V109.96H100.247L100.463 106.792H100.679V107.651V107.866V108.725V108.94V109.852V110.014V118.604H101.328H101.49H102.408H102.57H103.543H103.759H104.623V119.463H103.705H103.543H102.624H102.462H101.544H101.382H100.463H100.247H99.7609V114.04H100.031L100.193 110.497H99.7609ZM105.055 105.128H105.434V105.503H105.055V105.128ZM105.704 105.718V118.443H104.785H104.623H103.705H103.543H102.624H102.462H101.544H101.382H100.949V110.014V109.799V108.94V108.725V107.866V107.705V106.792V106.577V105.718H105.704ZM103.327 120.752H103.705V119.678H104.245V120.752H104.893H106.946H107.757H107.973H108.783H108.999H109.81L109.756 121.611H108.945H108.729H107.919H107.703H106.892H106.676H103.975H103.759H103.327V120.752ZM108.999 120.591H108.783H107.973H107.757H105.055H104.839H104.407V119.678H104.785V118.604H105.326V119.678H105.974H108.027H108.837H109.053H109.864H110.08H110.89L110.836 120.537H110.026H109.81H108.999V120.591ZM110.08 119.517H109.864H109.053H108.837H106.136H105.92H105.488V118.604H105.866V106.792H106.406V107.651V107.866V108.725V108.94V109.852V110.014V118.604H107.054H109.107H109.918H110.134H110.944H111.16H111.971L111.917 119.463H111.106H110.89H110.08V119.517ZM113.267 114.47L113.051 118.389H112.241H112.025H111.214H110.998H110.188H109.972H107.27H107.054H106.622V110.014V109.852V108.94V108.725V107.866V107.705V106.792V106.577V105.718H111.43V114.47H113.267ZM113.051 106.631H112.565L112.619 106.255H113.051V106.631ZM112.133 107.705V107.329H112.511V107.705H112.133ZM112.565 107.866V108.725V108.94V109.852V110.014V110.873V111.087V114.309H111.647V112.161V112V111.087V110.873V110.014V109.799V108.94V108.725V107.866H112.565ZM112.349 107.114H111.647V106.255H112.457L112.349 107.114ZM111.971 107.275V107.651H111.647V107.275H111.971ZM111.647 119.678H112.133L112.187 118.604H112.511V119.678H113.159H113.375H114.294H114.456H115.374H115.536H116.455V120.537H115.536H115.374H114.456H114.294H113.375H113.159H112.241H112.025H111.647V119.678ZM115.59 119.517H115.428H114.51H114.348H113.429H113.213H112.727V118.604H113.213L113.483 114.309H112.727V111.087V110.873V110.014V109.799V108.94V108.725V107.866V107.705V106.792H113.646V107.651V107.866V108.725V108.94V109.852V110.014V118.604H114.294H114.456H115.374H115.536H116.455H116.671H117.589V119.463H116.671H116.509H115.59V119.517ZM116.671 118.443H116.509H115.59H115.428H114.51H114.348H113.916V110.014V109.799V108.94V108.725V107.866V107.705V106.792V106.577V105.718H118.778V118.443H117.86H117.589H116.671ZM118.886 108.779L119.048 107.92H119.75L119.588 108.779L119.534 108.993L119.372 109.852L119.318 110.067L119.156 110.98L119.21 111.087L119.048 111.946L118.994 112.107L118.832 112.967V113.074V108.779H118.886ZM118.886 107.705V106.148L119.426 107.329H119.534H119.75H119.859L119.805 107.705H118.886ZM114.132 105.557H113.7V105.181H114.132V105.557ZM113.646 106.631H113.267V106.255H113.646V106.631ZM105.055 104.967H104.839H103.867H103.651H102.732H102.516H101.922L101.868 104.054H102.192L102.462 101.208L102.624 99.6511L102.678 99.1142L102.84 104.107H103.759H103.975H104.947H105.109H106.082L106.136 105.02H105.055V104.967ZM102.624 105.128H102.84H103.759H103.975H104.893V105.503H100.787V105.128H101.112L101.22 104.054H101.436H101.652H101.706L101.76 105.128H102.624ZM100.895 104.967H100.733H100.517H100.463H100.301H100.085H99.8689H99.5988H99.4367H99.3827H99.1666H99.1126H98.8965H98.4643H98.3022H98.1401H97.924H97.3837H97.2217H97.1676H97.0596L97.0055 104.322V104.054H97.4377L97.5999 99.2215L97.978 104.054H98.0321H98.2481H98.3562H98.5183H99.0585H99.2206H99.3827H99.4367H99.5988H99.977H100.193H100.301H100.463H100.517H100.733H101.003L100.895 104.967ZM100.085 105.128H100.301H100.517H100.571L100.625 106.201H100.679V106.577H100.463L100.517 105.503H100.031L100.085 105.128ZM100.301 105.718L100.031 109.745H99.2206H99.0585H98.1941H98.0321H97.2217V110.658H97.978H98.1401H99.0045H99.1666H99.977L99.8149 113.826H98.9505H98.7884H97.924H97.7619H97.1676V114.899V115.114V115.973V116.134V118.389H96.2492H96.0871H95.1687H95.0066H94.5744H94.4123H94.0881H93.8721H93.4939H93.2777H92.8996H92.7375H92.4133H92.2513V117.96V117.423V117.262V117.154V116.94V116.403V116.188V116.081V115.866V115.329V115.114V113.235V113.02V112.161V112V111.087V110.873V110.014V109.799V108.94V108.725V107.866V107.705V106.792V106.577V105.718H100.301ZM99.5988 109.96V110.014V110.497H99.1666L99.2206 109.96H99.5988ZM99.0045 109.96L98.9505 110.497H98.1401H97.978H97.3837V109.96H97.978H98.1401H99.0045ZM95.3848 119.678H96.2492V118.604V122.899H97.978H98.1401H99.0585H99.2747H100.193V123.812H99.2747H99.0585H98.1401H97.978H95.3307V119.678H95.3848ZM99.3287 122.738H99.1126H98.1941H98.0321H96.5193V118.604H97.4377V121.826H98.0861H98.2481H99.1666H99.3827H100.301H100.517H101.436V122.685H100.517H100.301H99.3287V122.738ZM101.112 122.899H101.49V121.826H102.03V122.899H105.542H105.758H106.568H106.784H107.595L107.541 123.812H106.73H106.514H105.704H105.488H101.112V122.899ZM106.784 122.738H106.568H105.758H105.542H102.192V121.826H102.57V120.752H103.11V121.826H103.759H105.812H106.622H106.838H107.649H107.865H108.675L108.621 122.685H107.811H107.595H106.784V122.738ZM108.351 122.899H108.837L108.891 121.826H109.215V122.899H110.944H111.106H112.025H112.241H113.159V123.812H112.241H112.025H111.106H110.944H108.297V122.899H108.351ZM112.295 122.738H112.079H111.16H110.998H109.486V121.826H109.972L110.026 120.752H110.35V121.826H110.998H111.16H112.079H112.295H113.213H113.429H114.348V122.685H113.429H113.213H112.295V122.738ZM113.375 121.665H113.159H112.241H112.025H111.106H110.944H110.566V120.752H111.052L111.106 119.678H111.43V120.752H112.079H112.295H113.213H113.429H114.348H114.51H115.428V121.611H114.51H114.348H113.375V121.665ZM114.834 121.826H115.536V120.752H115.753L115.59 121.718V121.826H118.724H119.642L119.588 121.987L119.48 122.685H118.724H118.562H114.672L114.834 121.826ZM115.807 121.665L115.969 120.752H116.725V119.678H116.887L116.725 120.644V120.752H116.995H117.211H117.589H117.806H119.913H120.831V120.913L120.723 121.611H119.967H119.75H115.807V121.665ZM117.697 120.591H117.481H117.103H116.887H116.833L116.887 120.376L117.049 119.678H117.752V118.604H117.914L117.752 119.571V119.678H118.022H118.238H118.616H118.832H120.939H121.858V119.839L121.749 120.537H120.993H120.777H117.697V120.591ZM121.858 120.752L121.966 119.839H122.236L122.506 121.826H122.56H122.776H123.857H124.073H125.153H125.315H126.396L126.558 122.685H125.477H125.261H124.181H124.073H122.992H122.776H121.641L121.371 120.752H121.858ZM126.45 121.665H125.369H125.153H124.073H123.857H122.776L122.452 119.732H122.938L123.1 118.819H123.37L123.641 120.805H123.695H123.911H124.991H125.153H126.233H126.45H127.53L127.692 121.665H126.612H126.45ZM127.53 120.591H126.45H126.233H125.153H124.991H123.911L123.587 118.658H124.073L124.181 117.745H124.451L124.721 119.732H124.775H124.991H126.071H126.287H127.368H127.584H128.665L128.827 120.591H127.746H127.53ZM128.665 119.517H127.584H127.368H126.287H126.071H124.991H124.937L124.667 117.53H124.505H124.235L124.343 116.725V116.671H124.505H125.585L125.855 118.658H125.909H126.125H127.206H127.422H128.503H128.719H129.799L129.961 119.517H128.881H128.665ZM129.583 119.678H130.123L129.961 118.604H130.501V120.752H131.15H131.366H132.285H132.501H133.419H133.635H134.553V121.611H133.635H133.419H132.501H132.285H131.366H131.15H130.231H130.015H129.583V119.678ZM129.421 107.866H129.907L129.853 108.725V108.94L129.799 109.799V110.014V110.175L129.367 107.705L129.421 107.866ZM128.881 105.718L130.988 118.443H129.907H129.691H128.611H128.395H127.314H127.098H126.017H125.963L125.693 116.456H125.531H124.451H124.235H124.127L123.965 117.53L123.911 117.691L123.803 118.389H123.478H123.262H123.046H122.992H122.29H122.074H119.913H119.696H119.318H119.156H119.102L119.156 118.175L119.318 117.047L119.372 116.671L119.426 116.51L119.967 113.235L120.021 113.02L120.183 112.161L120.237 112L120.399 111.141L120.453 110.926L120.615 110.014L120.669 109.799L120.831 108.94L120.885 108.725L121.047 107.866L121.101 107.705L121.263 106.846L121.317 106.631L121.479 105.718H128.881ZM121.047 105.557L120.939 106.04H120.831H120.615L119.75 104.215V104.107H120.669H120.885V103.624L121.641 105.181H121.803H122.02H122.938H123.154H124.073H124.289H125.207V105.557H121.047ZM126.179 104.967H125.261H125.099H124.181H123.965H123.046H122.83H121.912H121.695L120.831 103.141V100.242L121.749 102.067L121.966 102.443L122.722 104H122.83H123.046H123.965H124.181H125.099H125.261H126.179V104.967ZM121.966 92.2417H122.884V93.1008V93.2618V94.1209V94.3357V94.7115L122.722 94.3357L122.614 94.1209L122.236 93.2618L122.128 93.1008L121.966 92.7249V92.2417ZM116.563 98.6847V98.4699V98.2014V97.6108V97.3961V95.4632V95.2484V94.3357V94.1209V93.3155V93.1544V92.2417V92.0806V91.1679H121.101L121.803 92.7786L121.966 93.1544L122.02 93.2618L122.074 93.3692L122.452 94.2283L122.56 94.443L122.938 95.3558L123.1 95.7316V95.7853V94.443V94.2283V93.3155V93.1544V92.2417V92.0806V91.1679H127.26V103.893H126.341H126.179H125.261H125.099H124.181H123.965H123.046H122.83L121.966 102.067L121.749 101.691L120.831 99.8121L120.669 99.4363V102.765V103.195V103.893H119.75H119.588H119.534H119.372H118.67H118.508H118.022H117.806H117.589H117.373H116.509V98.6847H116.563ZM116.347 92.2417V93.1008V93.2618V94.1209V94.3357V95.2484V95.4632V97.3961V97.7719V98.2551V98.4699V98.6847V101.799V103.839V104.054H116.455H117.373H117.589H117.86H118.076H118.508H118.67H119.48H119.588V104.269V104.967H118.67H118.508H118.292H117.589H117.373H116.887H116.671H116.509H116.293H115.428V104.054H115.807L116.077 100.134H115.428V99.7585V99.5974H115.645L115.807 95.9464H115.428V95.4632V95.4095H115.915L116.131 92.2417H116.347ZM107.811 103.678V103.463V102.926V102.765V102.658V102.443V101.906V101.691V101.584V101.423V100.886V100.671V98.792V98.5773V97.7182V97.5035V96.6444V96.4833V95.6243V95.4095V94.4967V94.282V93.3155V93.1544V92.2417V92.0806V91.1679H115.969L115.699 95.1947H114.888H114.726H113.916H113.7H112.889H112.727V96.1075H112.835H113.646H113.862H114.726H114.888H115.699L115.536 99.3827H114.672H114.51H113.646H113.429H112.673V100.349H113.375H113.538H114.402H114.564H115.915L115.645 103.893H114.834H114.618H113.808H113.646H112.835H112.619H111.322H110.296H110.026H109.161H108.945H108.243H108.135H107.973H107.811V103.678ZM115.266 95.4095V95.4632V95.9464H114.834L114.888 95.4095H115.266ZM114.672 95.4095L114.618 95.9464H113.808H113.592H112.835V95.4095H113.646H113.808H114.672ZM115.266 99.5974V100.134H114.618V99.5974H115.266ZM114.456 99.5974V100.134H113.592H113.375H112.889V99.5974H113.429H113.592H114.456ZM107.649 92.2417V93.1008V93.2618V94.1209V94.3357V95.2484V95.4632V96.3222V96.4833V97.3424V97.5571V98.4162V98.6309V100.51V100.725V101.262V101.423V101.53V101.745V102.282V102.497V102.604V102.765V103.302V103.517V103.946H107.973H108.135H108.297H108.513H109.053H109.269H110.134H110.35H112.727H112.943H113.754H113.916H114.726L114.672 104.859H113.862H113.7H112.727H112.511H111.701H111.485H110.188H109.161H108.945H108.081H107.919H107.162H106.73V103.946H107.27L106.838 92.1343H107.649V92.2417ZM99.7609 92.2417H100.571L100.463 93.1008V93.2618L100.355 94.1209V94.3357L100.247 95.1947V95.4095V95.6243H100.193V95.4095V95.1947L100.085 94.3357V94.1209L99.977 93.2618V93.1008L99.8689 92.3491L99.7609 92.2417ZM95.7629 103.893H95.6009H95.3307H95.1147H94.6284H94.3583H94.1962H93.9801H93.3318H93.2777L93.3318 103.034L93.3858 102.014L93.4399 100.832L93.4939 98.7383V98.5236L93.5479 96.5907V96.4296L93.6019 95.5169V95.3021V94.443V94.2283L93.6559 93.3692V93.2081L93.71 92.3491V92.1343L93.764 91.2216H99.4367L99.5988 92.4028L99.7069 93.1544V93.3155V93.3692L99.8149 94.2283V94.443L99.9229 95.3021V95.5169L99.977 95.9464H100.409L100.463 95.5169V95.3021L100.571 94.443V94.2283L100.679 93.3692V93.2081L100.787 92.3491V92.1343L100.841 91.1679H106.622L107.054 103.893H106.136H105.974H105.001H104.839H103.867H103.651H103.002L102.786 98.7383H102.516H102.462L102.408 99.5437L102.03 103.946H101.868H101.652H101.598H101.382H101.166H100.949H100.679H100.463H100.409H100.301H100.247H100.031H99.5988H99.4367H99.3827H99.2206H99.1666H99.0045H98.4643H98.3022H98.2481H98.1401L98.0861 103.302L97.7079 98.792H97.3837L97.1676 103.946H96.8975H96.7354H96.3032H96.0871H95.7629V103.893ZM96.2492 105.128L96.3032 104.054H96.7354L96.8435 105.128H96.8975H97.1136H97.2217H97.3837H97.924H98.1401H98.3562H98.5183H98.8965H99.1126H99.2206H99.4367H99.4907H99.6528H99.9229L99.8689 105.503H95.871V105.396V105.128H96.2492ZM95.2227 105.128H95.6549L95.7089 105.503H95.2227V105.128ZM92.3053 95.4632L92.2513 96.3759V96.537L92.1973 97.3961V97.6108L92.0892 100.51L92.0351 101.799L91.9811 104.107L91.9271 105.074V105.181H92.0351H92.0892H92.2513H92.8455H93.0617H93.2777H93.4399H93.9261H94.1422H94.4663H94.6284H95.0066V105.557H92.1432V106.04H91.9811H91.9271L91.9811 105.557H91.1167V105.181L91.3328 98.7383V98.5236L91.3869 97.6645V97.4497L91.4409 96.5907V96.4833H91.6029L91.657 95.4095H92.3593L92.3053 95.4632ZM84.3095 94.3893V94.1746L84.3635 93.3155V93.1544L84.4175 92.2954V92.0806L84.4715 91.1679H92.7375L92.5214 95.1947H91.657H91.4409H90.8466V96.2685V96.4296V103.839H89.9281H89.7121H88.7936H88.5775H87.6591H87.4429H86.5245H86.3084H85.8762V101.799V100.725V100.564V99.1679V97.6645V97.4497V96.5907V96.4296V95.5169V95.3021V95.1947H84.0933L84.3095 94.3893ZM84.2014 91.9195V92.0806V92.1343V91.9195ZM84.2014 92.2417L84.1474 93.1008V93.2618L84.0933 94.2283V94.443L84.0393 95.3021V95.4095H85.8222V95.5169V96.4296V96.5907V97.4497V97.6645V100.618V100.779V101.638V101.852V104.107H86.4705H86.6866H87.6051H87.8211H88.7396H88.9557H89.8741V105.02H88.9557H88.7396H87.8211H87.6051H86.6866H86.4705H85.5521H85.3359H84.9037V102.926V101.852V101.638V100.295V98.7383V98.5236V97.6645V97.4497V96.5907V96.4296V96.3222H83.8773V96.0538H83.1209V95.5705V95.5169H83.8773L84.2014 92.2417ZM75.8814 103.678V103.463V102.926V102.765V102.658V102.443V101.906V101.691V101.584V101.423V100.886V100.671V98.792V98.5773V97.7182V97.5035V96.6444V96.4833V95.6243V95.4095V94.4967V94.282V93.3155V93.1544V92.2417V92.0806V91.1679H84.0393L83.7692 95.1947H82.9588H82.7967H81.9323H81.7162H80.9058H80.7437V96.1075H80.8518H81.6622H81.8783H82.7427H82.9048H83.7152L83.5531 99.4363H82.6887H82.5266H81.6622H81.4461H80.6897V100.349H81.3921H81.5541H82.4726H82.6347H83.9853L83.7152 103.893H82.9048H82.6887H81.8783H81.7162H80.8518H80.6357H79.3391H78.3126H78.0965H77.2321H77.07H76.3677H76.2596H76.0975H75.9354V103.678H75.8814ZM83.0128 95.4095V95.4632V95.9464H82.9588L83.0128 95.4095ZM82.7427 95.4095L82.6887 95.9464H81.8783H81.6622H80.9058V95.4095H81.7162H81.9323H82.7427ZM83.6611 99.5974V100.134H82.7427V99.5974H83.6611ZM82.4726 99.5974V100.134H81.6081H81.3921H80.9058V99.5974H81.4461H81.6081H82.4726ZM66.697 110.443C66.1027 111.087 65.0762 111.356 63.6715 111.356H56.9723V98.6847H57.8908V110.497H64.8061C65.6705 110.497 66.3728 110.389 66.9671 110.121C66.8591 110.282 66.751 110.389 66.697 110.443ZM67.7775 109.369C67.6695 109.477 67.5614 109.584 67.3993 109.638C67.2913 109.745 67.1832 109.799 67.0751 109.852C66.4809 110.175 65.7245 110.282 64.7521 110.282H58.0528V98.6847V98.5236V97.6645H58.9713V98.5236V98.6847V109.423H65.8866C66.4269 109.423 66.9131 109.369 67.3453 109.262C67.4533 109.262 67.5074 109.208 67.5614 109.208C67.7235 109.154 67.8855 109.101 67.9936 109.047C67.9396 109.208 67.8855 109.316 67.7775 109.369ZM68.858 108.295C68.75 108.403 68.6419 108.51 68.4799 108.618C68.3718 108.671 68.2637 108.725 68.1557 108.779C67.9936 108.886 67.7775 108.94 67.6154 108.993C67.5614 108.993 67.4533 109.047 67.3993 109.047C66.9671 109.154 66.4269 109.208 65.8866 109.208H59.1333V98.6847V98.5236V97.6645V97.5035V96.5907H60.0518V97.5035V97.6645V98.5236V98.6847V108.349H61.7806H61.9427H62.3209H62.537H66.9671C67.1832 108.349 67.3453 108.349 67.5614 108.349C67.6154 108.349 67.7235 108.349 67.7775 108.349C68.0476 108.349 68.2637 108.295 68.4799 108.242C68.5339 108.242 68.6419 108.188 68.6959 108.188C68.858 108.134 69.0201 108.081 69.1281 108.027C69.0741 108.134 68.9661 108.242 68.858 108.295ZM69.9926 107.222C69.8845 107.329 69.7765 107.436 69.6144 107.49C69.5063 107.544 69.3983 107.597 69.2902 107.651C69.1281 107.758 68.9121 107.812 68.6959 107.866C68.6419 107.866 68.5339 107.92 68.4799 107.92C68.2637 107.973 67.9936 108.027 67.7235 108.027C67.6695 108.027 67.6154 108.027 67.5074 108.027C67.3453 108.027 67.1292 108.027 66.9131 108.027H62.483H62.2669H61.9427H61.7266H60.2139V98.6847V98.5236V97.6645V97.5035V96.5907V96.4296V95.5169H61.1323V96.4296V96.5907V97.5035V97.6645V98.5236V98.6847V107.275H61.7266H61.9427H62.3209H62.537H62.8611H63.0232H63.4014H63.6175H67.5614H67.7775H68.0476C68.2637 107.275 68.4258 107.275 68.6419 107.275C68.6959 107.275 68.804 107.275 68.858 107.275C69.1281 107.275 69.3443 107.222 69.5603 107.168C69.6144 107.168 69.7225 107.114 69.7765 107.114C69.9385 107.06 70.1006 107.007 70.2087 106.953C70.1547 107.06 70.0466 107.168 69.9926 107.222ZM71.0731 106.148C70.9651 106.255 70.857 106.363 70.6949 106.416C70.5869 106.47 70.4788 106.524 70.3707 106.631C70.2087 106.738 69.9926 106.792 69.8305 106.846C69.7765 106.846 69.6684 106.899 69.6144 106.899C69.3983 106.953 69.1281 107.007 68.858 107.007C68.804 107.007 68.75 107.007 68.6419 107.007C68.4799 107.007 68.2637 107.007 68.0476 107.007H67.7775H67.5614H63.6175H63.4014H63.0232H62.8611H62.537H62.3209H61.9427H61.7266H61.3484V98.6847V98.5236V97.6645V97.5035V96.5907V96.4296V95.5169V95.3558V94.443H62.2669V95.3558V95.5169V96.4296V96.5907V97.5035V97.6645V98.5236V98.6847V101.691V101.906V103.893V104.107V106.255H62.537H62.8611H63.0232H63.4014H63.6175H63.9417H64.1037H64.4819H64.698H67.3993H67.6154H68.6419H68.858H69.1281C69.3443 106.255 69.5063 106.255 69.7225 106.255C69.7765 106.255 69.8845 106.255 69.9385 106.255C70.2087 106.255 70.4248 106.201 70.6409 106.148C70.6949 106.148 70.8029 106.094 70.857 106.094C71.0191 106.04 71.1811 105.987 71.2892 105.933C71.2351 105.987 71.1811 106.094 71.0731 106.148ZM72.1536 105.074C72.0455 105.181 71.9375 105.289 71.7754 105.396C71.6674 105.45 71.5593 105.503 71.4513 105.557C71.2892 105.665 71.0731 105.718 70.911 105.772C70.857 105.772 70.7489 105.826 70.6949 105.826C70.4788 105.879 70.2087 105.933 69.9385 105.933C69.8845 105.933 69.8305 105.933 69.7225 105.933C69.5063 105.933 69.3443 105.933 69.1281 105.933H68.804H68.5879H67.5074H67.3453H64.698H64.4819H64.1037H63.9417H63.6175H63.4014H63.0232H62.8611H62.4289V103.946V101.584V98.5773V98.4162V97.5571V97.3961V96.4833V96.3222V95.4095V95.2484V94.3357V94.1746V93.3155H63.3474V94.1746V94.3357V95.2484V95.4095V96.3222V96.4833V97.3961V97.5571V98.4162V98.5773V100.51V100.671V102.658V102.873V105.074H63.6175H63.9417H64.1037H64.4819H64.698H65.0222H65.2383H65.6165H65.8326H66.8591H67.1292H68.5339H68.75H69.7765H69.9926H70.2627C70.4788 105.074 70.6409 105.074 70.857 105.074C70.911 105.074 71.0191 105.074 71.0731 105.074C71.3432 105.074 71.5593 105.02 71.7754 104.967C71.8295 104.967 71.9375 104.913 71.9915 104.913C72.1536 104.859 72.3157 104.805 72.4237 104.752C72.3157 104.913 72.2617 105.02 72.1536 105.074ZM73.2881 104C73.1801 104.107 73.0721 104.215 72.91 104.269C72.8019 104.322 72.6939 104.376 72.5858 104.43C72.4237 104.537 72.2077 104.591 71.9915 104.644C71.9375 104.644 71.8295 104.698 71.7754 104.698C71.5593 104.752 71.2892 104.805 71.0191 104.805C70.9651 104.805 70.911 104.805 70.8029 104.805C70.6409 104.805 70.4248 104.805 70.2087 104.805H69.9385H69.7225H68.6419H68.4258H66.9131H66.5889H65.7785H65.5625H65.1843H64.9681H64.644H64.4279H64.0497H63.8877H63.4554V102.819V100.456V98.5236V98.3625V97.5035V97.3424V96.4296V96.2685V95.3558V95.1947V94.282V94.1209V93.3155V93.1544V92.2417H64.3739V93.1544V93.3155V94.1746V94.3357V95.2484V95.4095V96.3222V96.4833V97.3961V97.5571V98.4699V98.7383V99.5437V99.7585V101.745V101.906V104.107H64.644H64.9681H65.1843H65.5625H65.7785H66.1027H66.3188H66.697H66.8591H66.9131H67.1292H67.9396H68.2097H69.6144H69.8305H70.857H71.0731H71.3432C71.5593 104.107 71.7214 104.107 71.9375 104.107C71.9915 104.107 72.0996 104.107 72.1536 104.107C72.4237 104.107 72.6399 104.054 72.8559 104C72.91 104 73.018 103.946 73.0721 103.946C73.2341 103.893 73.3962 103.839 73.5043 103.785C73.4502 103.839 73.3422 103.946 73.2881 104ZM74.3687 102.926C74.2606 103.034 74.1526 103.141 73.9905 103.195C73.8825 103.248 73.7744 103.356 73.6663 103.409C73.5043 103.517 73.2881 103.571 73.1261 103.624C73.0721 103.624 72.964 103.678 72.91 103.678C72.6939 103.732 72.4237 103.785 72.1536 103.785C72.0996 103.785 72.0455 103.785 71.9375 103.785C71.7754 103.785 71.5593 103.785 71.3432 103.785H71.0731H70.857H69.7765H69.5603H68.0476H67.7235H67.2373H66.9671H66.8591H66.6429H66.2648H66.0487H65.7245H65.5084H65.1302H64.9141H64.644V101.799V99.4363V98.7383V98.5773V97.6108V97.4497V96.537V96.3759V95.4632V95.3021V94.3893V94.2283V93.3155V93.1544V92.2417V92.0806V91.1679H71.2892C73.8284 91.1679 75.071 92.2417 75.071 94.4967C75.071 95.1947 75.017 95.7316 74.8549 96.1075C74.7469 96.4833 74.4227 96.8055 74.0445 97.0739V97.1276V97.235H74.0985C74.9089 97.6108 75.3411 98.5773 75.3411 100.134C75.2331 101.369 74.9629 102.336 74.3687 102.926ZM74.5848 96.8055V97.4497C74.4767 97.3424 74.3147 97.235 74.2066 97.1813C74.3687 97.0739 74.4767 96.9129 74.5848 96.8055ZM80.7977 104.967H80.5817H79.7713H79.5551H78.2585H77.2321H77.0159H76.1515H75.9895H75.2331H74.8009V103.678V103.463V102.926V102.765V102.711C75.2331 102.067 75.4492 101.262 75.4492 100.188C75.4492 99.0605 75.2331 98.2014 74.8009 97.6645V97.4497V96.5907C74.9089 96.4833 74.9629 96.3222 75.017 96.1611C75.1791 95.7853 75.2331 95.1947 75.2331 94.4967C75.2331 93.6914 75.071 93.0471 74.7469 92.5638V92.2417H75.6653V93.1008V93.2618V94.1209V94.3357V95.2484V95.4632V96.3222V96.4833V97.3424V97.5571V98.4162V98.6309V100.51V100.725V101.262V101.423V101.53V101.745V102.282V102.497V102.604V102.765V103.302V103.517V103.946H75.9895H76.1515H76.3136H76.5297H77.07H77.2861H78.1505H78.3666H80.7437H80.8518H81.6622H81.8243H82.6347L82.5806 104.859H81.7702H81.6081H80.7977V104.967ZM81.6622 106.201H81.7162L81.7702 105.128H82.5266V106.577V107.651H81.8243V107.758L81.6622 106.631V106.201ZM82.5266 107.866V108.725V108.94V109.852V110.014V110.873V111.087V111.946L81.8243 107.866H82.5266ZM73.2881 107.705L73.4502 106.846L73.5043 106.631L73.6663 105.718H81.338L83.4451 118.443H82.3645H82.1484H81.0679H80.8518H79.7713H79.5551H78.4747H78.4206L78.1505 116.456H77.9884H76.9079H76.6918H76.5837L76.4217 117.53L76.3677 117.691L76.2596 118.389H75.9354H75.7193H75.5032H75.3411H74.6388H74.4227H72.2617H72.0455H71.6674H71.5053H71.4513L71.5053 118.175L71.6674 117.047L71.7214 116.671L71.7754 116.51L72.3157 113.235L72.3697 113.02L72.5318 112.161L72.5858 112L72.7479 111.087L72.8019 110.873L72.964 109.96L73.018 109.745L73.1801 108.886L73.2341 108.671L73.2881 107.866V107.705ZM72.2077 108.779L72.3697 107.92L72.4237 107.758L72.5858 106.899H73.2881L73.1261 107.758L73.0721 107.866L72.91 108.725V108.94L72.7479 109.799L72.6939 110.014L72.5318 110.926V111.087L72.3697 111.946V112.161L72.2077 113.02L72.1536 113.235L71.6133 116.51L71.5053 117.047L71.2351 118.497V118.604H71.5053H71.6674H72.0455H72.2617H74.3687H74.4767H74.6928H75.3411V118.765L75.2331 119.463H74.8549H74.6388H74.4767H74.2606H71.1811H70.9651H70.5869H70.3707V119.356L70.5869 118.175L70.6949 117.691L70.7489 117.477L71.4513 113.128L71.5053 112.913L71.6674 112.161L71.7214 112L71.8835 111.141L71.9375 110.926L72.0996 110.014L72.1536 109.799L72.3157 108.94L72.2077 108.779ZM71.1271 109.799L71.2892 108.94L71.3432 108.725L71.5053 107.866H72.2077L72.0455 108.725L71.9915 108.94L71.8295 109.799L71.7754 110.014L71.6674 110.926L71.6133 111.087L71.4513 111.946V112.161L71.2892 113.02L71.2351 113.235L70.5328 117.584L70.4248 118.228L70.2087 119.624V119.732H70.4788H70.6949H71.0731H71.2892H73.2881H74.2066V119.893L74.0985 120.591H73.3422H73.1261H70.0466H69.8305H69.4523H69.2362H69.1822L69.2362 120.376L69.4523 119.195L69.5063 118.819L69.5603 118.604L70.4788 113.235L70.5328 113.02L70.6949 112.161L70.7489 112L70.911 111.141L70.9651 110.926L71.1271 110.014V109.799ZM69.9926 110.926L70.1547 110.014L70.2087 109.799L70.3707 108.94H71.0731L70.911 109.799V110.014L70.7489 110.926L70.6949 111.087L70.5328 111.946V112.161L70.3707 113.02V113.235L69.4523 118.604L69.3443 119.195L69.1281 120.591V120.698H69.3983H69.6144H69.9926H70.2087H72.2077H73.1261V120.859L73.018 121.557H72.2617H72.0455H68.1557L69.6144 113.235L69.6684 113.02L69.8305 112.161L69.8845 112L70.0466 111.141L69.9926 110.926ZM68.9121 112L69.0741 111.141L69.1281 110.926L69.2902 110.014H69.9926L69.8305 110.926L69.7765 111.087L69.6144 111.946V112.107L69.4523 112.967V113.235L68.0476 121.718V121.826H71.1271H72.0455L71.9915 121.987L71.8835 122.685H71.1271H70.9651H67.0751L68.6959 113.235L68.75 113.02L68.9121 112.161V112ZM68.6419 125.96H63.8336L65.9406 113.235H66.6429L64.698 124.94V125.047H68.75L68.6419 125.96ZM69.8305 124.134L69.7225 124.832H68.9661H68.75H64.9141L66.8591 113.235L66.9131 113.02L67.0751 112.161H67.7775L67.6154 113.02V113.235L65.8326 123.866V123.973H68.9661H69.8845L69.8305 124.134ZM70.1006 123.812H69.8845H65.9947L67.7775 113.235L67.8315 113.02L67.9936 112.161L68.0476 112L68.2097 111.141H68.9121L68.75 112L68.6959 112.161L68.5339 113.02L68.4799 113.235L66.8591 122.792V122.899H70.0466H70.9651V123.06L70.857 123.758H70.1006V123.812ZM70.7489 125.96L70.4788 123.973H70.9651L71.0731 123.06H71.3432L71.6674 125.047H75.5573L75.7193 125.906H70.7489V125.96ZM75.5573 124.886H71.8835L71.6133 122.899H72.0996L72.2077 121.987H72.4777L72.7479 123.973H75.3952H75.5573H76.6377L76.7999 124.832H75.7193H75.5573V124.886ZM75.9354 126.014L75.7733 125.047H75.9354V126.014ZM80.9599 125.96H76.0975V125.047H77.0159H80.9599V125.96ZM82.0944 124.886H81.1759H81.0139H77.2861V123.973H78.1505H81.0139H81.1759H82.0944V124.886ZM83.1749 123.812H82.2565H82.0944H81.1759H81.0139H78.3666V122.899H79.231H80.9599H81.1219H82.0403H82.2025H83.1209V123.812H83.1749ZM84.2554 122.738H83.337H83.1749H82.2565H82.0944H81.1759H81.0139H79.5011V121.826H80.3115H80.9599H81.1219H82.0403H82.2025H83.1209H83.2829H84.2014V122.738H84.2554ZM84.4715 121.665H84.3095H83.391H83.2289H82.3105H82.1484H81.23H81.0679H80.6357V120.752H81.5541H82.2025H82.3645H83.2829H83.4451H83.7692H83.9313H84.3635H84.5255H85.444V121.611H84.4715V121.665ZM89.4959 125.96H84.6336V121.826H85.498V120.752V125.047H89.4959V125.96ZM90.6305 124.886H89.7121H89.4959H85.7681V120.752H86.6326V119.678V123.973H89.4959H89.658H90.5765V124.886H90.6305ZM91.711 123.812H90.7926H90.6305H89.7121H89.4959H86.8487V119.678H87.7131V118.604H87.7671V122.899H89.4959H89.658H90.5765H90.7385H91.657V123.812H91.711ZM92.7915 122.738H91.8731H91.711H90.7926H90.6305H89.7121H89.4959H87.9832V118.604H88.8477V116.188V121.826H89.4959H89.658H90.5765H90.7385H91.657H91.8191H92.7375V122.738H92.7915ZM93.0077 121.665H92.8455H91.9271H91.7651H90.8466H90.6845H89.7661H89.4959H89.0637V116.188H89.2799L89.3339 115.114H89.9822V117.262V117.423V117.96V118.175V120.752H90.6305H90.7926H91.711H91.8731H92.1973H92.3593H92.7915H92.9536H93.8721V121.611H93.0077V121.665ZM98.0321 125.96H93.1697V121.826H94.0881V120.752V125.047H98.0321V125.96ZM98.2481 124.886H98.0861H94.3583V120.752H95.2227V119.678V123.973H98.0861H98.2481H99.1666V124.832H98.2481V124.886ZM105.38 125.96H98.9505V125.047H99.3287V123.973H99.8149V125.047H105.38V125.96ZM105.65 124.886H105.434H100.031V123.973H100.409V122.899H100.949V123.973H105.488H105.704H106.514L106.46 124.832H105.65V124.886ZM110.998 125.96H106.136V125.047H106.622L106.676 123.973H107.054V125.047H110.998V125.96ZM111.214 124.886H111.052H107.325V123.973H107.811L107.865 122.899H108.189V123.973H111.052H111.214H112.133V124.832H111.214V124.886ZM116.239 125.96H111.43L111.593 125.101H112.349V124.027H112.511L112.349 124.993V125.101H116.401L116.239 125.96ZM117.427 124.134L117.319 124.832H116.563H116.347H112.511L112.673 123.973H113.375V122.899H113.538L113.375 123.866V123.973H116.509H117.427V124.134ZM117.697 123.812H117.481H113.592L113.754 122.899H114.456V121.826H114.618L114.456 122.792V122.899H117.589H118.508V123.06L118.4 123.758H117.697V123.812ZM118.346 125.96L118.076 124.027H118.562L118.67 123.114H118.94L119.21 125.101H123.1L123.262 125.96H118.346ZM123.37 124.886H123.154H119.48L119.21 122.899H119.696L119.805 121.987H120.075L120.345 123.973H122.992H123.154H124.235L124.397 124.832H123.37V124.886ZM124.451 123.812H124.235H123.154H122.992H120.561L120.291 121.826H120.777L120.939 120.913H121.209L121.479 122.899H122.83H123.046H124.127H124.343H125.423L125.585 123.812H124.451ZM130.015 125.96H125.153V123.973H125.693L125.531 122.899H126.017V125.047H129.961V125.96H130.015ZM131.15 124.886H130.231H130.015H126.287V122.899H126.828L126.666 121.826H127.152V123.973H130.015H130.231H131.15V124.886ZM132.231 123.812H131.312H131.096H130.177H130.015H127.368V121.826H127.909L127.746 120.752H128.233V122.899H129.961H130.177H131.096H131.312H132.231V123.812ZM132.231 122.738H131.312H131.096H130.177H130.015H128.449V120.752H128.989L128.827 119.678H129.313V121.826H129.961H130.177H131.096H131.312H132.231H132.447H133.365V122.685H132.447H132.231V122.738ZM140.281 125.96H132.447V123.973V122.899H133.365V125.047H140.335L140.281 125.96ZM140.551 124.886H140.335H133.527V122.899V121.826H134.445V123.973H140.443H140.659H141.469L141.415 124.832H140.551V124.886ZM145.521 126.121C144.062 126.121 142.549 125.906 141.091 125.53V125.047H141.469L141.523 123.973H141.955V124.618H142.009C143.522 125.047 145.035 125.262 146.547 125.262C147.574 125.262 148.384 125.101 149.087 124.779C148.438 125.691 147.25 126.121 145.521 126.121ZM149.735 124.242C149.627 124.349 149.519 124.403 149.411 124.456C148.709 124.886 147.79 125.047 146.655 125.047C145.197 125.047 143.684 124.832 142.225 124.456V123.973H142.603L142.657 122.899H143.09V123.544H143.198C144.711 123.973 146.223 124.188 147.736 124.188C148.438 124.188 149.087 124.081 149.681 123.92C149.735 123.92 149.843 123.866 149.897 123.866C150.005 123.812 150.167 123.758 150.275 123.705C150.113 123.92 149.951 124.081 149.735 124.242ZM150.815 123.168C150.707 123.275 150.599 123.329 150.491 123.383C150.329 123.49 150.167 123.544 149.951 123.651C149.897 123.705 149.789 123.705 149.735 123.758C149.195 123.92 148.492 124.027 147.736 124.027C146.277 124.027 144.765 123.812 143.306 123.436V122.953H143.684L143.792 121.879H144.224V122.04V122.201V122.416V122.47H144.278C144.657 122.577 144.981 122.631 145.359 122.738C146.493 122.953 147.682 123.114 148.817 123.114C149.195 123.114 149.573 123.114 149.897 123.06C149.951 123.06 150.005 123.06 150.113 123.007C150.329 122.953 150.545 122.899 150.761 122.846C150.815 122.846 150.923 122.792 150.977 122.792C151.085 122.738 151.247 122.685 151.356 122.631C151.193 122.846 151.031 123.007 150.815 123.168ZM151.896 122.094C151.788 122.201 151.68 122.255 151.572 122.309C151.41 122.416 151.247 122.524 151.031 122.577C150.977 122.631 150.869 122.631 150.815 122.685C150.599 122.738 150.383 122.792 150.113 122.846C150.059 122.846 150.005 122.846 149.897 122.899C149.573 122.953 149.195 122.953 148.763 122.953C147.628 122.953 146.439 122.846 145.305 122.577C145.251 122.577 145.197 122.577 145.089 122.524C144.819 122.47 144.603 122.416 144.332 122.363V122.255V122.201V122.094V121.879H144.711L144.765 120.805H145.197V120.967V121.128V121.342V121.396H145.251C145.629 121.503 145.953 121.611 146.331 121.665C147.466 121.933 148.655 122.04 149.789 122.04H149.897C149.951 122.04 150.005 122.04 150.059 122.04C150.329 122.04 150.599 121.987 150.869 121.987C150.923 121.987 151.031 121.987 151.085 121.933C151.301 121.879 151.518 121.826 151.734 121.772C151.788 121.772 151.896 121.718 151.95 121.718C152.058 121.665 152.22 121.611 152.328 121.557C152.328 121.772 152.112 121.933 151.896 122.094ZM153.031 121.02C152.923 121.128 152.815 121.181 152.706 121.235C152.544 121.342 152.328 121.45 152.166 121.503C152.112 121.557 152.004 121.557 151.95 121.611C151.734 121.665 151.518 121.718 151.247 121.772C151.193 121.772 151.139 121.772 151.031 121.826C150.761 121.879 150.491 121.879 150.221 121.879C150.167 121.879 150.113 121.879 150.059 121.879C150.005 121.879 150.005 121.879 149.951 121.879C148.817 121.879 147.628 121.772 146.493 121.503C146.439 121.503 146.385 121.503 146.277 121.45C146.007 121.396 145.791 121.342 145.521 121.235V121.181V121.02V120.805H145.899L145.953 119.732H146.385V119.893V120.054V120.269V120.322H146.439C146.817 120.43 147.141 120.537 147.52 120.591C148.33 120.752 149.141 120.859 149.897 120.913C149.951 120.913 150.005 120.913 150.059 120.913C150.329 120.913 150.653 120.967 150.923 120.967H151.031C151.085 120.967 151.139 120.967 151.247 120.967C151.518 120.967 151.788 120.913 152.058 120.913C152.112 120.913 152.166 120.913 152.274 120.859C152.49 120.805 152.706 120.752 152.923 120.698C152.977 120.698 153.085 120.644 153.139 120.644C153.247 120.591 153.409 120.537 153.517 120.483C153.409 120.698 153.193 120.859 153.031 121.02ZM154.111 119.946C154.003 120.054 153.895 120.107 153.787 120.161C153.625 120.269 153.463 120.322 153.247 120.43C153.193 120.483 153.085 120.483 153.031 120.537C152.815 120.591 152.598 120.644 152.328 120.698C152.274 120.698 152.22 120.752 152.112 120.752C151.842 120.805 151.572 120.805 151.301 120.805C151.247 120.805 151.193 120.805 151.085 120.805C151.031 120.805 151.031 120.805 150.977 120.805C150.707 120.805 150.383 120.805 150.113 120.805C150.059 120.805 150.005 120.805 149.951 120.805C149.141 120.752 148.33 120.644 147.574 120.483C147.52 120.483 147.466 120.483 147.358 120.43C147.087 120.376 146.871 120.322 146.601 120.269V120.161V120V119.785H146.979L147.033 118.711H147.466V118.873V119.034V119.248V119.302H147.574C147.952 119.409 148.276 119.517 148.655 119.571C148.979 119.624 149.303 119.678 149.681 119.732C149.735 119.732 149.843 119.732 149.897 119.785C150.275 119.839 150.653 119.893 151.031 119.893C151.085 119.893 151.139 119.893 151.247 119.893C151.518 119.893 151.842 119.946 152.112 119.946H152.22C152.274 119.946 152.328 119.946 152.382 119.946C152.652 119.946 152.923 119.946 153.193 119.893C153.247 119.893 153.301 119.893 153.409 119.839C153.625 119.785 153.841 119.732 154.057 119.678C154.165 119.678 154.219 119.624 154.273 119.624C154.381 119.571 154.543 119.517 154.651 119.463C154.489 119.624 154.327 119.785 154.111 119.946ZM155.191 118.873C155.083 118.98 154.975 119.034 154.867 119.087C154.705 119.195 154.543 119.248 154.327 119.356C154.273 119.409 154.165 119.409 154.111 119.409C153.895 119.463 153.679 119.517 153.409 119.571C153.355 119.571 153.301 119.571 153.193 119.624C152.923 119.678 152.652 119.678 152.382 119.678C152.328 119.678 152.274 119.678 152.22 119.678C152.166 119.678 152.166 119.678 152.112 119.678C151.842 119.678 151.518 119.678 151.247 119.678C151.193 119.678 151.139 119.678 151.031 119.678C150.599 119.678 150.221 119.624 149.789 119.571C149.735 119.571 149.627 119.571 149.573 119.517C149.249 119.463 148.979 119.409 148.655 119.356C148.601 119.356 148.547 119.356 148.438 119.302C148.168 119.248 147.952 119.195 147.682 119.141V119.034V118.873V118.658H148.06L148.33 114.738H146.763V114.201H147.844V113.933V114.094C148.006 114.309 148.168 114.47 148.33 114.631C148.384 114.685 148.492 114.738 148.546 114.792L148.601 114.846V114.953V115.168V115.383V115.544L148.276 115.49V115.705L148.655 115.758V116.081V116.242V116.295V116.51V116.618V116.832V116.886V117.101V117.369V117.53V117.799V118.014V118.228V118.282H148.709C148.709 118.282 148.709 118.282 148.763 118.282C149.087 118.389 149.465 118.443 149.789 118.55C150.113 118.604 150.491 118.658 150.815 118.711C150.869 118.711 150.977 118.711 151.031 118.765C151.41 118.819 151.788 118.873 152.166 118.873C152.22 118.873 152.274 118.873 152.382 118.873C152.652 118.873 152.923 118.926 153.247 118.926H153.355C153.409 118.926 153.463 118.926 153.517 118.926C153.787 118.926 154.057 118.873 154.327 118.873C154.381 118.873 154.435 118.873 154.543 118.819C154.759 118.765 154.975 118.711 155.191 118.658C155.299 118.658 155.353 118.604 155.407 118.55C155.516 118.497 155.678 118.443 155.786 118.389C155.624 118.55 155.407 118.711 155.191 118.873ZM156.326 117.799C156.218 117.906 156.11 117.96 156.002 118.014C155.84 118.121 155.678 118.228 155.461 118.282C155.407 118.336 155.299 118.336 155.245 118.389C155.029 118.443 154.813 118.497 154.543 118.55C154.489 118.55 154.435 118.55 154.327 118.604C154.057 118.658 153.787 118.658 153.517 118.658C153.463 118.658 153.409 118.658 153.355 118.658C153.301 118.658 153.301 118.658 153.247 118.658C152.977 118.658 152.652 118.658 152.382 118.658C152.328 118.658 152.274 118.658 152.166 118.658C151.734 118.658 151.356 118.604 150.977 118.55C150.923 118.55 150.815 118.55 150.761 118.497C150.437 118.443 150.113 118.389 149.843 118.336C149.789 118.336 149.735 118.336 149.627 118.282C149.357 118.228 149.141 118.175 148.871 118.121V118.067V117.906V117.638V117.477V117.208V117.047V116.832V116.725V116.51V116.403V116.242V115.92V115.758V115.597V115.383V115.168V115.114V114.953V114.899V114.631L149.573 114.792L149.789 114.846L150.599 115.007L150.815 115.06L151.626 115.222L151.734 115.275H151.788L152.274 115.383L153.031 115.544V115.007H152.977C152.544 114.899 152.166 114.792 151.842 114.738C151.788 114.738 151.734 114.685 151.68 114.685C151.464 114.631 151.247 114.524 151.031 114.47C150.977 114.47 150.923 114.416 150.869 114.416C150.815 114.416 150.761 114.363 150.653 114.309H150.599C150.437 114.255 150.329 114.148 150.167 114.04C150.059 113.987 149.951 113.933 149.897 113.826C149.789 113.772 149.735 113.718 149.627 113.665C149.573 113.611 149.519 113.557 149.519 113.557C149.195 113.289 148.979 112.913 148.763 112.43C148.763 112.376 148.709 112.269 148.709 112.215C148.601 111.946 148.546 111.624 148.492 111.248C148.492 111.195 148.492 111.141 148.492 111.034C148.492 110.819 148.492 110.658 148.492 110.443C148.492 110.336 148.492 110.228 148.492 110.175C148.492 110.121 148.492 110.014 148.492 109.96C148.492 109.691 148.546 109.423 148.601 109.154C148.601 109.101 148.601 108.993 148.655 108.94C148.709 108.725 148.763 108.51 148.871 108.295C148.871 108.242 148.925 108.134 148.979 108.081C149.033 107.92 149.141 107.758 149.249 107.597C149.303 107.436 149.411 107.329 149.573 107.168C149.627 107.114 149.681 107.06 149.681 107.007C150.437 106.201 151.572 105.826 152.977 105.826C154.381 105.826 155.894 105.987 157.461 106.255L157.137 110.175L156.326 110.014L156.11 109.96L155.299 109.799L155.083 109.745L154.273 109.584L154.057 109.53L153.031 109.369V109.96H153.139C153.463 110.014 153.733 110.067 154.003 110.121C154.057 110.121 154.111 110.121 154.165 110.175C154.435 110.228 154.705 110.336 154.975 110.443C155.029 110.443 155.083 110.497 155.191 110.497C155.461 110.604 155.732 110.711 156.002 110.873C156.056 110.926 156.11 110.926 156.164 110.98C156.326 111.087 156.434 111.195 156.596 111.302C157.299 111.946 157.677 112.967 157.677 114.47C157.677 115.92 157.245 117.101 156.326 117.799ZM156.056 109.906L156.002 110.443C155.786 110.336 155.516 110.175 155.191 110.067C155.137 110.067 155.083 110.014 154.975 110.014C154.705 109.906 154.435 109.852 154.165 109.799C154.111 109.799 154.057 109.745 153.949 109.745C153.679 109.691 153.463 109.638 153.193 109.584V109.369L154.003 109.53L154.165 109.584L154.975 109.745L155.191 109.799L156.056 109.906Z" fill="#2B2523"/>
<path d="M130.501 112.054V112.161V113.02V113.235V114.04L130.663 115.275V113.235V113.02V112.161V112V111.893H130.123V112.054H130.501Z" fill="#2B2523"/>
<path d="M125.369 113.879L125.423 111.087H124.937H124.721H124.612V113.879H125.153H125.369ZM124.829 113.718V111.893V111.302H124.937H125.207V112.913V113.665H125.153H124.829V113.718Z" fill="#2B2523"/>
<path d="M74.369 96.9665V96.8591C74.8012 96.5907 75.0713 96.2685 75.2334 95.839C75.3954 95.4631 75.4495 94.9262 75.4495 94.1745C75.4495 91.9195 74.1528 90.792 71.5596 90.792H64.8604V103.678H71.6676C73.1264 103.678 74.1528 103.356 74.7472 102.711C75.3414 102.067 75.6656 101.101 75.6656 99.8658C75.6656 98.3088 75.2334 97.3423 74.369 96.9665ZM70.371 101.101H69.8308V98.5235H70.371V101.101ZM70.371 96.1611H69.8308V94.0135H70.371V96.1611Z" fill="#FEE240"/>
<path d="M84.2015 95.0873L84.4177 90.8457H76.0977V103.732H84.0935L84.3636 100.027H81.1221V99.2753H83.9314L84.0935 95.7853H81.1221V95.0873H84.2015Z" fill="#FEE240"/>
<path d="M84.4717 95.0336H86.2545V103.732H91.2789V95.0336H92.8457L93.1158 90.8457H84.6337L84.4717 95.0336Z" fill="#FEE240"/>
<path d="M101.058 90.8457L100.572 95.5169H100.301L99.7611 90.8457H93.9263L93.4941 103.732H97.6001L97.7622 98.5773H97.9243L98.3565 103.732H102.408L102.895 98.5773H103.057L103.165 103.732H107.487L107.001 90.8457H101.058Z" fill="#FEE240"/>
<path d="M116.131 95.0873L116.401 90.8457H108.027V103.732H116.023L116.293 100.027H113.052V99.2753H115.861L116.077 95.7853H113.052V95.0873H116.131Z" fill="#FEE240"/>
<path d="M123.317 90.8457V95.0336L121.426 90.8457H116.726V103.732H121.048V99.5974L123.1 103.732H127.639V90.8457H123.317Z" fill="#FEE240"/>
<path d="M73.829 105.396L71.668 118.282H76.6384L76.9625 116.295H78.3672L78.6373 118.282H83.8238L81.6628 105.396H73.829ZM77.989 113.557H77.4487V110.98H77.989V113.557Z" fill="#FEE240"/>
<path d="M84.04 118.282H89.0644V113.718H91.7117L91.8738 110.336H89.0644V109.584H91.9278L92.198 105.396H84.04V118.282Z" fill="#FEE240"/>
<path d="M92.5762 118.282H97.6006V113.718H100.194L100.41 110.336H97.6006V109.584H100.464L100.734 105.396H92.5762V118.282Z" fill="#FEE240"/>
<path d="M106.082 105.396H101.058V118.282H106.082V105.396Z" fill="#FEE240"/>
<path d="M111.863 105.396H106.784V118.282H113.429L113.699 114.148H111.863V105.396Z" fill="#FEE240"/>
<path d="M119.049 105.396H114.024V118.282H119.049V105.396Z" fill="#FEE240"/>
<path d="M121.426 105.396L119.265 118.282H124.289L124.613 116.295H126.018L126.288 118.282H131.475L129.313 105.396H121.426ZM125.586 113.557H125.045V110.98H125.586V113.557Z" fill="#FEE240"/>
<path d="M131.258 109.584H133.04V118.282H138.119V109.584H139.686L139.956 105.396H131.474L131.258 109.584Z" fill="#FEE240"/>
<path d="M145.359 113.826H148.168L148.33 110.336H145.305V109.584H148.384L148.654 105.396H140.28V118.282H148.33L148.6 114.524H145.359V113.826Z" fill="#FEE240"/>
<path d="M156.975 110.819C156.218 110.174 155.084 109.745 153.463 109.476V109.101L157.461 109.799L157.785 105.664C156.218 105.342 154.651 105.235 153.193 105.235C151.734 105.235 150.599 105.611 149.789 106.416C148.979 107.221 148.601 108.403 148.601 109.906C148.601 111.409 149.033 112.537 149.843 113.235C150.275 113.611 150.707 113.879 151.248 114.094C151.734 114.309 152.383 114.47 153.193 114.685V115.06L149.087 114.148L148.925 117.906C150.437 118.336 151.95 118.55 153.463 118.55C156.543 118.55 158.055 117.047 158.055 114.094C158.109 112.537 157.731 111.409 156.975 110.819Z" fill="#FEE240"/>
<path d="M69.29 101.638H70.3706H70.9108V101.101V97.9867H69.29V101.638Z" fill="#13110C"/>
<path d="M70.9108 93.4766H69.29V96.6981H70.9108V93.4766Z" fill="#13110C"/>
<path d="M122.776 90.3087V92.4564L121.804 90.3087H116.996H116.239H107.595H107.541H100.572L100.464 91.7047L100.302 90.3087H93.6564H93.3862H85.0122H84.0938H75.5577V92.1879C75.0174 91.1141 73.8829 90.3087 71.6138 90.3087H64.3203V104.268H71.6678C73.2346 104.268 74.4232 103.893 75.1255 103.141C75.2876 102.98 75.4496 102.765 75.5577 102.604V104.268H84.634L85.0122 99.4899H84.526L84.7421 95.8389V95.5705H85.7146V104.268H91.8195V95.5705H93.2242L92.9 104.268H107.487H108.027H116.185H116.509H121.588V101.96L122.722 104.268H128.179V90.3087H122.776ZM74.3151 102.389C73.8288 102.926 72.9104 103.195 71.6138 103.195H65.4008V91.3826H71.6138C73.8288 91.3826 74.9094 92.2953 74.9094 94.2282C74.9094 94.8725 74.8554 95.3557 74.6933 95.6779C74.5852 95.9463 74.3691 96.2148 74.045 96.4295L73.8288 96.5907V97.2886L74.153 97.4497C74.8013 97.7719 75.1255 98.5772 75.1255 99.9195C75.1255 101.047 74.8554 101.852 74.3151 102.389ZM75.5577 97.2886C75.4496 97.1275 75.3416 97.0201 75.2335 96.9128C75.3416 96.7517 75.4496 96.6443 75.5577 96.4833V97.2886ZM83.5536 96.3222L83.3914 98.7383H80.5281V100.564H83.7696L83.5536 103.195H76.6382V91.3826H83.8777L83.6616 94.5504H80.5821V96.3759H83.5536V96.3222ZM92.3598 94.4967H90.739V103.195H86.7951V94.4967H85.0662L85.1743 91.3826H92.5759L92.3598 94.4967ZM103.705 103.195L103.543 98.0403H102.355L101.922 103.195H98.8429L98.4107 98.0403H97.2221L97.06 103.195H94.0346L94.4668 91.3826H99.3291L99.8694 96.0537H101.112L101.544 91.3826H106.515L106.947 103.195H103.705ZM115.483 96.3222L115.375 98.6846H112.511V100.51H115.753L115.537 103.141H108.568V91.3289H115.807L115.591 94.4967H112.511V96.3222H115.483ZM127.098 103.195H123.425L121.534 99.3826L120.507 99.5973V103.195H117.266V91.3826H121.048L122.776 95.2483L123.803 95.0336V91.3826H127.098V103.195Z" fill="#13110C"/>
<path d="M78.4753 110.443H76.8545V114.094H78.4753V110.443Z" fill="#13110C"/>
<path d="M126.071 110.443H124.45V114.094H126.071V110.443Z" fill="#13110C"/>
<path d="M120.993 104.859L119.643 113.074V104.859H113.538V113.611H112.403V104.859H106.622H106.244H101.274H100.517H92.7376H91.9812H83.4992V112.967L82.1486 104.859H73.3963L71.0732 118.819H77.1782L77.5023 116.832H77.9345L78.2046 118.819H83.4992H89.6041V114.255H92.0353V118.819H98.1402V114.255H100.571V118.819H106.244H106.622H113.484H113.916H118.616H119.589H124.721L125.045 116.832H125.477L125.747 118.819H132.015L129.691 104.859H120.993ZM79.1231 117.745L78.853 115.759H76.5298L76.2057 117.745H72.3158L74.3148 105.933H81.2301L83.175 117.745H79.1231ZM91.441 109.047H88.5236V110.873H91.333L91.2249 113.128H88.5776V117.691H84.6337V105.879H91.7111L91.441 109.047ZM99.9231 109.047H97.0597V110.873H99.869L99.761 113.128H97.0597V117.691H93.1158V105.879H100.193L99.9231 109.047ZM105.542 117.745H101.598V105.933H105.542V117.745ZM112.943 117.745H107.325V105.933H111.269V114.685H113.105L112.943 117.745ZM118.508 117.745H114.564V105.933H118.508V117.745ZM126.72 117.745L126.45 115.759H124.127L123.803 117.745H119.913L121.912 105.933H128.827L130.826 117.745H126.72Z" fill="#13110C"/>
<path d="M157.352 110.389C157.298 110.336 157.244 110.282 157.19 110.282L157.946 110.443L158.379 105.235L157.892 105.128C156.272 104.805 154.705 104.698 153.192 104.698C151.572 104.698 150.329 105.181 149.41 106.04C149.302 106.148 149.194 106.309 149.086 106.416L149.194 104.859H140.496H139.74H130.934L130.718 110.121H132.5V118.819H138.659V110.121H139.74V118.819H148.816L148.87 118.389C150.437 118.819 152.004 119.034 153.516 119.034C156.866 119.034 158.649 117.316 158.649 114.04C158.649 112.376 158.216 111.141 157.352 110.389ZM139.2 109.047H137.579V117.745H133.635V109.047H131.906L132.014 105.933H139.416L139.2 109.047ZM147.736 110.873L147.628 113.235H144.764V115.06H147.952L147.736 117.691H140.82V105.879H148.06L147.844 109.047H144.764V110.873H147.736ZM148.708 113.45L148.762 112.644C148.978 113.02 149.248 113.342 149.572 113.611C149.572 113.611 149.626 113.611 149.626 113.665L148.708 113.45ZM153.516 117.96C152.22 117.96 150.869 117.799 149.572 117.477L149.68 114.792L153.786 115.705V114.255L153.354 114.148C152.598 113.987 152.004 113.772 151.464 113.557C151.031 113.396 150.599 113.128 150.221 112.805C149.518 112.215 149.14 111.248 149.14 109.906C149.14 108.564 149.464 107.49 150.167 106.792C150.869 106.094 151.842 105.772 153.138 105.772C154.435 105.772 155.786 105.879 157.136 106.094L156.866 109.154L152.814 108.456V109.96L153.246 110.014C154.705 110.228 155.786 110.658 156.488 111.248C157.082 111.785 157.406 112.752 157.406 114.094C157.568 116.725 156.272 117.96 153.516 117.96Z" fill="#13110C"/>
</svg>
