<svg width="216" height="216" viewBox="0 0 216 216" fill="none" xmlns="http://www.w3.org/2000/svg">
<path d="M156.5 49H167V59.5M156.5 167H167V156.5M59.5 49H49V59.5M59.5 167H49V156.5" stroke="#BDFD02"/>
<g clip-path="url(#clip0_500_305)">
<g filter="url(#filter0_i_500_305)">
<path d="M77.428 107.987C77.428 115.419 71.9017 116.629 66.0983 116.629H56V99.346H66.0983C71.9017 99.346 77.428 100.581 77.428 107.988V107.987ZM70.4446 107.987C70.4446 103.715 67.5805 103.814 64.0381 103.814H62.9071V112.184H64.0381C67.5805 112.184 70.4446 112.258 70.4446 107.987Z" fill="white"/>
<path d="M83.4496 106.037L84.3537 117H77.6963L78.6006 106.037H83.4496ZM78.0476 102.284C78.0476 100.655 79.3793 99.346 81.0371 99.346C82.6949 99.346 84.0015 100.655 84.0015 102.284C84.0015 103.914 82.6698 105.222 81.0371 105.222C79.4044 105.222 78.0476 103.889 78.0476 102.284Z" fill="white"/>
<path d="M96.5494 116.999C90.5956 116.999 84.4912 114.925 84.4912 107.987C84.4912 101.05 90.3698 99.0001 96.1731 99.0001C101.549 99.0001 106.271 100.851 107.352 105.123H100.294C99.6403 104.185 98.5354 103.42 96.1742 103.42C92.9338 103.42 91.4767 105.123 91.4767 107.987C91.4767 110.852 93.4868 112.58 96.6268 112.58C99.3643 112.58 100.47 111.394 100.796 110.579H95.6714V106.357H107.755C108.358 113.813 103.609 116.998 96.5505 116.998L96.5494 116.999Z" fill="white"/>
<path d="M108.892 110.308L107.988 99.3453H114.646L113.741 110.308H108.892ZM114.293 114.061C114.293 115.69 112.962 116.999 111.304 116.999C109.646 116.999 108.339 115.69 108.339 114.061C108.339 112.432 109.671 111.123 111.304 111.123C112.937 111.123 114.293 112.456 114.293 114.061Z" fill="#7BF179"/>
<path d="M124.739 110.382L122.654 112.233V116.628H115.745V99.346H122.654V104.827L128.507 99.346H137.073L129.386 106.234L137.425 116.629H129.286L124.739 110.383V110.382Z" fill="white"/>
<path d="M152.387 114.184H144.55L143.571 116.628H136.411L144.55 99.346H152.387L160.527 116.629H153.368L152.388 114.185L152.387 114.184ZM150.579 109.74L148.468 104.456L146.358 109.74H150.579Z" fill="white"/>
</g>
</g>
<defs>
<filter id="filter0_i_500_305" x="56" y="99.0001" width="104.527" height="18.9999" filterUnits="userSpaceOnUse" color-interpolation-filters="sRGB">
<feFlood flood-opacity="0" result="BackgroundImageFix"/>
<feBlend mode="normal" in="SourceGraphic" in2="BackgroundImageFix" result="shape"/>
<feColorMatrix in="SourceAlpha" type="matrix" values="0 0 0 0 0 0 0 0 0 0 0 0 0 0 0 0 0 0 127 0" result="hardAlpha"/>
<feOffset dy="1"/>
<feGaussianBlur stdDeviation="0.5"/>
<feComposite in2="hardAlpha" operator="arithmetic" k2="-1" k3="1"/>
<feColorMatrix type="matrix" values="0 0 0 0 1 0 0 0 0 1 0 0 0 0 1 0 0 0 0.5 0"/>
<feBlend mode="normal" in2="shape" result="effect1_innerShadow_500_305"/>
</filter>
<clipPath id="clip0_500_305">
<rect width="105" height="18" fill="white" transform="translate(56 99)"/>
</clipPath>
</defs>
</svg>
