<svg width="216" height="216" viewBox="0 0 216 216" fill="none" xmlns="http://www.w3.org/2000/svg">
<path d="M156.5 49H167V59.5M156.5 167H167V156.5M59.5 49H49V59.5M59.5 167H49V156.5" stroke="#BDFD02"/>
<g clip-path="url(#clip0_500_368)">
<path d="M73.021 97L63.8444 103.713L67.5614 106.43L68.771 105.546V110.346L56 101.012V118.909H60.5282V109.778L73.021 118.909V97Z" fill="#FF230A"/>
<path opacity="0.2" d="M68.7706 111.548V110.346L61.7715 105.231L68.7706 111.548Z" fill="black"/>
<path d="M82.9351 110.089V112.687H80.6016V104.892H86.1898C88.8736 104.892 89.6647 106.003 89.6647 107.428V107.532C89.6647 108.926 88.8535 110.089 86.1898 110.089H82.9351ZM82.9351 108.339H86.1497C86.8808 108.339 87.2312 108.056 87.2312 107.522V107.49C87.2312 106.956 86.9006 106.663 86.1497 106.663H82.9351V108.339Z" fill="white"/>
<path d="M96.314 111.262H91.7974L91.1264 112.687H88.7529L92.5183 104.892H95.5426L99.5284 112.687H97.015L96.314 111.262ZM94.0105 106.579L92.6285 109.502H95.4527L94.0105 106.579Z" fill="white"/>
<path d="M102.521 112.687H100.188V104.892H106.196C108.68 104.892 109.431 105.793 109.431 106.914V107.04C109.431 108.161 108.54 108.58 108.049 108.748C108.81 108.978 109.461 109.533 109.461 110.539V111.681C109.461 112.31 109.531 112.509 109.601 112.634V112.687H107.228C107.136 112.542 107.097 112.367 107.118 112.194V111.293C107.118 110.34 106.717 109.921 105.565 109.921H102.521V112.687ZM102.521 108.192H106.056C106.727 108.192 106.997 107.857 106.997 107.428V107.417C106.997 107.008 106.737 106.663 106.056 106.663H102.521V108.192Z" fill="white"/>
<path d="M113.446 106.736H110.241V104.892H119.014V106.736H115.799V112.687H113.446V106.736Z" fill="white"/>
<path d="M122.718 104.892L127.475 109.795V104.892H129.778V112.687H127.475L122.418 107.522V112.687H120.114V104.892H122.718Z" fill="white"/>
<path d="M139.02 104.892V106.663H133.472V107.815H138.89V109.596H133.472V110.874H139.12V112.687H131.169V104.892H139.02Z" fill="white"/>
<path d="M142.674 112.687H140.341V104.892H146.349C148.833 104.892 149.584 105.793 149.584 106.914V107.04C149.584 108.161 148.693 108.58 148.202 108.748C148.963 108.978 149.614 109.533 149.614 110.539V111.681C149.614 112.31 149.684 112.509 149.754 112.634V112.687H147.381C147.289 112.542 147.25 112.367 147.271 112.194V111.293C147.271 110.34 146.87 109.921 145.718 109.921H142.674V112.687ZM142.674 108.192H146.209C146.88 108.192 147.151 107.857 147.151 107.428V107.417C147.151 107.008 146.89 106.663 146.209 106.663H142.674V108.192Z" fill="white"/>
<path d="M154.761 112.823C150.855 112.823 150.404 111.063 150.404 110.036V109.921H152.838C152.868 110.392 153.128 111.157 155.051 111.157H155.191C157.154 111.157 157.374 110.748 157.374 110.33C157.374 109.879 157.144 109.596 155.422 109.544L154.14 109.512C151.356 109.429 150.505 108.444 150.505 107.228V107.134C150.505 105.971 151.166 104.756 154.56 104.756H155.251C158.776 104.756 159.578 106.045 159.578 107.218V107.323H157.154C157.104 107.029 156.954 106.39 155.001 106.39H154.841C153.038 106.39 152.908 106.726 152.908 107.061C152.908 107.396 153.108 107.7 154.631 107.731L155.882 107.752C158.686 107.805 159.818 108.517 159.818 110.068V110.214C159.818 111.503 159.197 112.823 155.452 112.823H154.761Z" fill="white"/>
</g>
<defs>
<clipPath id="clip0_500_368">
<rect width="104" height="22" fill="white" transform="translate(56 97)"/>
</clipPath>
</defs>
</svg>
